<?xml version="1.0" encoding="utf-8"?>
<!-- Generator: Adobe Illustrator 21.0.0, SVG Export Plug-In . SVG Version: 6.00 Build 0)  -->
<svg version="1.1" id="Layer_1" xmlns="http://www.w3.org/2000/svg" xmlns:xlink="http://www.w3.org/1999/xlink" x="0px" y="0px"
	 width="256.7px" height="207.6px" viewBox="0 0 256.7 207.6" style="enable-background:new 0 0 256.7 207.6;" xml:space="preserve"
	>
<style type="text/css">
	.st0{fill:#8B0021;}
</style>
<g>
	<path class="st0" d="M245.7,73.5c2.7,0.5,4.9,0.9,5.5-0.2c0.1-0.2,0.1-0.3,0.1-0.5c0-0.8-0.6-1.8-2-3.4
		c-3.8-4.3-10.6-14.3-12.7-17.8c2,0.6,4.1,1.1,5.6,0.9c1.1-0.1,2.5-0.3,2.7-1.2c0-0.1,0-0.2,0-0.3c0-0.9-1-2.1-3.4-3.8
		c-2.8-2.1-5.9-6.5-7.8-9.1L233,37c-1.5-2.1-3.2-3.2-4.9-4.4c2.1,0.2,3.6,0.1,4-0.8c0.4-0.8-0.4-1.6-1-2.2
		c-3.4-3.1-12-9.3-19.4-10.6c1.3-1.5,1.5-3.7,1.4-5v-0.4l-1.1,0.2l-4.8,0.4c-1.7,0-3.7-0.9-5.9-1.9c-2.6-1.2-5.6-2.6-8.7-2.6
		c-3.6-0.1-7.5,1-11.7,3.1l-1.9,0.1l-3.3,0.1c-2.1,0.6-5.5,2.6-8.3,6.3c-1.3,1.8-0.8,4.3-0.4,6.3c0.3,1.4,0.5,2.6,0.1,3.1
		c-0.6,0.6-1.2,0.6-1.7,0.5c-1-0.1-1.9-0.7-2.4-1.5l-0.4-0.7l-0.3,0.7c-0.2,0.4-0.3,0.8-0.3,1.2c0,1,0.6,2,1.7,3.4
		c-2.1,0-4.3,0.9-5.8,2.4c-1.3,1.3-1.9,2.8-1.7,4.2l0.1,0.7l0.5-0.4c1.7-1.3,3.6-2.2,5.4-2.4l2.1,0.2l3.8,0.6c3.1,0.1,4.4-0.9,5.6-2
		l1.2-0.9c0.3,0.5,2.3,1.7,2.7,3.4c0,0.2,0.1,0.4,0.1,0.6c0,0.6-0.2,1.2-0.6,1.8c-1.8,2.8-2,3.1-3.2,6.9c-1.1,3.6-4.5,4.9-6.6,5
		c0.3-0.9,0.5-2.2,0.6-3.8l0.3-2.9c0.3-1.8,0.8-2.2,1.7-3.1l1.5-1.5l-0.7-0.2c-1.9-0.4-5.6,1.8-7.5,4c-0.7-1.2-1.8-2.9-4.4-2.9h-0.6
		l0.2,0.5c0.5,1.3,1.1,3.9,0,5.3l-1.3,1.4c-1.7,1.8-3.9,3.8-4.4,6.3c-0.8,0.1-2.6,0.4-4.6,0.4c0.1-0.5,0.2-1,0.2-1.6
		c0-0.1,0-0.1,0-0.2c0,0-0.1-2.6-0.2-4c0.8,0.8,0.7,1,2.3,2.6l0.2-0.4c0.6-0.9,0.9-2,0.9-3c0-0.5-0.1-1-0.2-1.5c0,0-0.5-2.2-0.7-3.1
		l2.8-0.6l1.4-1.5l0.6-1l-0.3-0.2c-1.9-1.1-2.8-2.7-4-5.1l-0.3-0.6c-0.5-0.9-0.9-3-0.9-4.1c0.1,0,0.4-0.1,0.4-0.1
		c0.9-0.5,2.1-1.1,2.7-2.8c0.6-1.7,0.5-3-0.3-4.1l-0.2-0.3l-0.3,0.2c-0.6,0.4-1.5,0.7-2.3,0.5l-0.9-0.7l-0.1-1.4l0.2-1.3
		c-0.1-0.8-0.9-1.5-1.3-1.9c0.4-0.4,1.2-1.1,1.2-1.1l2.5-2.7c0.3-0.5,0.5-1.6,0.5-2.8c0-1.9-0.5-4.2-1.9-5.8l-0.9-1L147,5.6l0.2,0.7
		c0,1.1,0,3.6-0.7,4.6l0,0c-0.2-1.2-0.3-2.7-1.9-2.6l-1.1,0.4l-1.6,1l-0.7,0.2c-1.7,0-3.1-0.6-4.6-1.5c-2.1-1.2-4.6-2.6-8.9-2.5
		c-6.7,0.2-9.3,2.7-10.4,3.8l-0.5,0.3c-0.6,0-0.6,0-0.8-0.2c-0.2-0.4-0.5-0.9-1.5-0.9c-1.1,0-1.5,0.7-1.8,1.3l-0.6,0.8
		c-2.4,0.8-8.3,3.5-8.4,9.3c-0.1,4.1,3.1,6,4.8,6.4l0.5,0.1v-0.5c0-1.2,0.5-3.2,3.2-3.3c1,0,1.7,0.5,2.1,1c0.7,0.8,1,1.7,0.9,2.1
		l-0.1,0.3l3.1,1.1c0,0-3.5-0.4-6-0.2c-1.8,0.1-4.7,0.8-4.7,0.8c-2,0.5-4,0.9-5.1,0.7c-3.4-0.4-4.1-2.8-4.3-5.3L98,22l-0.6,1.3
		c-1.3,2.9,0,8.3,3.4,10.2c1.7,0.9,3.5,1.4,5.2,1.5c1.7,0,3.5-0.6,5.4-1.4c2-0.8,4.2-1.7,6.4-1.7c4.1,0,5.6,0.2,6.8,0.6
		c0.1,0.2,0.1,0.1,0.2,0.3c-0.8,0.2-2.5,0.7-2.5,0.7l-2.3,1.6c-1.3,0.9-2.7,2-3.7,2.1l-4.2,0.1l0.4,0.6c0.7,1,3.7,3.4,6.8,3.4
		l2.8-0.4c1-0.2,1.5-0.4,1.8-0.1c0.4,0.3,0.5,0.9,0.4,1.4c-0.1,1.2-1.1,2.8-2.8,3.6L121,46l0.7,0.9l1.6,1.3c-1.9,1-3.9,1.3-5.6,0.7
		l-0.8-0.3l0.7,1.9c0,0,0.7,1.8,0.9,2.4c-0.3,0.2-2.1,0.9-2.1,0.9l-2,1.3c-0.5,0.5-1.8,1.9-2.2,2.5c-1.6-2.5-3.5-4.3-5.9-5.7l-2-1.2
		l-2.7-1.2l-1.4-3.3l-0.6-1.6l-0.9-1.7L98,41.6l-0.7,0.1c0,0-0.1,1.4-0.5,3.1c-0.3,1.3-0.8,2.7-1.1,3.5c-0.4-1.1-0.9-2.7-0.9-2.7
		l-0.4-1.7l-1.2-1.5l-1.4-1.1l-0.7,4.2l-0.5,1.4c-0.4,1-0.6,2.1-0.6,3c0,2.2,0.9,3.7,1.5,4.6l0.4,0.8c0-0.1-0.8,0-0.8,0
		c-1-0.1-2.8-0.2-5.9,0.7l-4.1,1.8l-1.2,0.5L79,57.9l-0.7-1.5l0.4-1.2l0.7-3.1l-1.1-2.5L77.2,47c0-0.1,0-0.1,0-0.2
		c0-1.4,1.7-3.4,2.8-4.6c0,0,0.4-0.5,0.7-0.8c1.4,1.2,4.5,1.5,6.3,1c0.9-0.2,1.4-0.6,1.5-1l0.1-0.4l-0.4-0.1
		c-0.9-0.2-2.5-1.5-2.8-2.9c0-0.3,0-0.6,0-0.7c0.1,0.1,0.7,0.1,0.7,0.1c2.2-0.1,2.9-0.2,4.6-2.8l0.3-0.5L90.5,34
		c-4.1-1-4.9-1.4-5.3-4.8v-3.6l0,0v-0.4L85,25c-0.4-5-2-8.5-5-10.6c-3.4-2.3-4.2-2.4-9.6-2.1l-4,1.4l-5.7,2.4
		c-1.8,0.6-6.6,1-9.7-0.3l-0.3-0.1l-0.2,0.2c-1.2,1.5-1.6,2.9-1.6,4.1c0,1.6,0.7,2.9,1.4,3.9c-0.6,0.3-2.5,1.2-2.5,1.2
		c-0.4,0.2-1.3,0.7-1.3,0.7l-4,2l0,0c-0.7,0.2-6.9,2.4-6.9,2.4l-5,1.8l-4.4,0.8c-0.3,0-0.8,0.5-1,0.8l-0.1,0.2l0.2,0.5
		c1.8,2.1,4.5,2.4,7.2,2.7c0.6,0.1,1,0.3,1,0.4c0,0.2-0.4,0.4-0.8,0.6c-0.4,0.2-3.5,2.1-3.5,2.1L17.5,47c-0.9,0.4-2.8,1.3-2.8,1.3
		l-5.9,2.6L6,52.1c-0.6,0.3-0.6,0.7-0.6,0.9c0,0.6,0.6,1.2,1,1.3c2.2,0.8,10.1,0.8,12,0.5l8.3-1.7l1.6-0.7l3.3-0.9H32
		c0.1,0,0.1,0.1,0.1,0.1c-1.4,2-3.8,4.5-7.6,7.2l-7.8,4.8l-1.4,0.8l-7.2,3.7l-3.9,1.7c-1.1,0.4-1.8,1.9-1.7,3.2
		c0.1,0.6,0.6,2.1,3,2.4c5.3,0.5,12.8-1.6,22.5-6.3l0,0c0.5-0.3,0.9-0.5,1.3-0.7c-5.8,6.8-11.8,12-18.1,17.6l-5.5,4.9
		c-1.6,1.4-1.8,3.9-0.4,5.7l1.6,0.9c3.7,1.4,6.9-0.8,9.7-2.8l0.7-0.5c3.9-2.7,7.1-6.1,10.1-9.3l0.5-0.6c-2.1,3.6-3.8,6.5-3.8,6.5
		l-2.9,6.1l-1,2.2c-3.4,7.6-4.6,14.3-5.3,20.3c-0.6,4.8-0.3,8.5,0.8,9.7l0.9,0.5c2.1,0.1,3.4-1.3,4-2.6l2.5-7.1l2-6
		c0.9-2.4,5.7-14.6,5.6-14.7c0.6-1.1,1.5-3.2,1.5-3.2l1.1-2.5l1.1-2.3c-0.8,5.9-1.7,16-1.1,23.9c-2.2,3.1-5.4,6.7-7.2,7.7
		c-1.3,0.7-1.7,1-1.5,1.5c0.1,0.4,0.7,0.4,1.1,0.3c0.1,0,8.1-1.6,8.1-1.6l0.2-0.1c0.8,8.2,1.7,12.4,2.3,14.5
		c2.1,7.2,7.8,22.4,14.8,28.3c3.4,2.8,5.4,3.8,6.4,3c1.7-1.2-0.5-6.5-3.2-12.3l-0.5-1.2c-2.6-5.9-3.5-8.9-4.6-13.2
		c2.7,0.8,9.5,2.4,11.9,2.9c0,0,16.1,2.4,17.4,2.6c-0.1,0.1-0.2,0.2-0.2,0.2l-3.6,3.1c-0.6,0.5-0.9,0.9-0.9,1.4c0,0.1,0,0.2,0.1,0.3
		c0.6,1.7,5.6,2.1,7.1,2.2c2.3,0.1,6.6-0.9,9.8-1.6c0,0,1.5-0.3,2.3-0.5l-0.8,2.3c-0.2,0.7-0.3,1.2-0.3,1.7c0,1.5,0.9,2.3,1.7,3.2
		l0.3,0.3c-2.5-0.3-4.1-0.8-6-2.3l-0.5-0.3l-0.2,0.6c-0.4,1.3-0.6,2.2-0.6,3.1c0,0.9,0.2,1.9,0.6,3.2c-1.1-0.9-2.9-2.5-2.9-2.5
		c-2.9-2.7-5.9-5.5-7.5-5.9c-2.6-0.7-6-1.1-8.1-0.1l-0.6,0.3l0.5,0.4c2,1.6,4,4.5,5.2,7.3c2.2,5.1,7.3,8.7,11.1,9.3
		c-0.5,0.3-1.4,0.9-1.4,0.9l-0.3,0.3l0.5,0.3c0.9,0.6,5.4,3.2,11.2,1.9l1.2,1.8c0.1,0.2,0.3,0.6,0.4,1c0.1,0.5,0.1,1,0.1,1.4
		c0,1.1-0.3,2.3-0.7,3.2c0,0,0,0.1-0.1,0.4c-2.2-0.3-3.1-0.8-4.2-2l-0.7-0.7c-5.6-5.8-5.8-5.8-11.2-5.8c-1.1,0-2.3,0.2-2.4,1
		c0,0.1,0,0.1,0,0.2c0,0.7,1,1.2,1.3,1.4c2.9,1.6,4.8,4.8,6.3,7.3c0,0,1.2,1.8,1.6,2.4c-0.3,0.3-4,3.3-4,3.3h1.1l2.9-0.1l1.9-0.2
		l1.4-0.3c0.1,0,0.2,0.3,0.2,0.3c0.3,0.4,0.8,1,2.7,1.2l0.9,0.3l0.3,0.2l-0.3,0.2l-0.6,0.7l-0.8,0.7c-0.7,0.5-1.2,1-1,1.5
		c0.2,0.7,1.2,0.8,3.6,1.1l1.2,0.1c3.4,0.4,5,1.1,6.4,1.7c1.4,0.6,2.6,1.1,5.2,1.2c5.8,0.3,9.8-1,12.7-2.8c1.7,1.1,2.9,2.1,3.6,3.7
		c0.6,1.4,2.3,2.7,3.6,3.6c2.3,1.4,7,1.4,8.1,0.2l0.1-0.1c3.1-1.1,5.9-5,5.5-7.6c-0.4-2.5-1.5-4.3-2.4-5.7c-1.3-2-2.1-3.3-0.4-5.2
		c0.6-0.6,1.5-1.5,2.7-1.4c1.3,0.1,2.6,1.4,3.8,3.4c1.9,3.3,5.2,5.4,9.3,6.3c4.4,0.9,9.1,0.1,12-2.1c0.6-0.4,1.2-1.1,2-2
		c6.9,1.1,10.4-3.1,13.1-7.2c1-1.5,1.5-4,2-6.5l0.5-2.3l0.6-2.1l0.3-0.8c0.3-0.9,0.5-1.5,2.5-3.6l0.6-0.7l-1-0.1
		c-6.4-0.7-8.9,3.2-11.3,9.9c-1.4,3.9-2.1,5.3-3.2,6.4c0.3-0.8,0.5-1.6,0.5-2.4c0.1-1,0.8-2.8,1.6-4.5l1.2-3l-0.4-0.1
		c-1.6-0.6-3.1-0.6-4.6,0c-2.8,1.2-4.6,4.2-5.2,5.7c-1.7,4.4-3.2,7.7-7.3,9.6c-1.1,0.5-1.1,1-1,1.3c0.1,0.4,0.7,0.5,1.5,0.3
		c1.2-0.3,5-3.8,6.2-6.6c2.2-5,4-8.2,7-8.8l1.6-0.2c0,0-0.1,0.5-1.2,1.9l-1,1.6l-0.9,2.2c-1.1,2.8-2.4,6.4-5.8,9.1
		c-2.4,1.9-5.2,2.8-8.2,2.4c-3.5-0.5-6.9-2.6-9.2-5.9c-1.6-2.3-3.4-3.7-5.3-3.8c-1.9-0.1-3.8,1-5.7,3.1c-2,2.2-0.5,5,0.9,7.6
		c0.9,1.7,1.9,3.4,1.7,4.8c-0.3,3.4-1.2,3.8-2.6,4.5l-0.8,0.4l0,0c-0.9,0.5-1.7,0.5-2.8-1.5c-0.7-1.2-0.9-2.2-0.7-3.1
		c0.4-1.5,2-2.5,3.2-3.2l0.6-0.3l0.3-0.2l-0.5-0.4c-1.6-1-3.5-0.1-4.6,0.4l-0.7,0.3c-1-0.9-1.5-4-0.8-6c0.2-0.6,0.3-1.1,0.4-1.4
		l0.3-0.4c1.5-1.6,2.2-3,2.1-4.1c-0.1-1.2-1.3-1.9-2.5-2.6l-1-0.7c-2.6-2-8.9,0.3-11.5,2.1l-1.9,1.4c-1.8,1.4-3.6,2.6-5.5,3.1
		c0-0.5,0.3-2.6,0.3-2.6l-0.2-1.8c6.3-6.4,14.1-8.3,19-4.7c0.1,0.1,0.2,0,0.2,0.1l0.7,1.1l0.7-0.3c-0.1-0.5-0.2-1-0.4-1.5
		c0,0,0-0.1-0.1-0.1c-1.2-3.7-4.7-9.5-15.1-9.6c-8-0.1-12.5,2.6-15.8,4.6l-2.6,1.5c-3.2,1.5-7.6,1.4-9.4,1c0.9-0.5,3.6-1.9,3.6-1.9
		l-1.3-0.1c-5.6-0.4-8.6-1.4-13.1-8.8l-1.5-3.5c0,0-0.7-1.6-1-2.4c3.3,0,6,2.6,8.8,5.3c2.1,2.1,4.3,4.2,6.7,5.1l0.9,0.3l-0.4-0.9
		c-0.9-2.1-1.4-4.2-1.4-6.2c0-0.2,0-0.5,0-0.7c5.9,3.3,10.2,2,16.7-0.1l3.1-1c2-0.6,6.7,0.2,9.3,1l1.9,0.6c2.8,0.9,5.3,1.7,6,2.2
		l0,0l0.4-0.7l0,0c-0.3-0.2-6.8-4-12.1-5.1c-0.1,0-0.3-0.1-0.4-0.1c-6.4-2.3-13.4-1.8-19,1.1c-0.4-0.6-0.7-1.3-0.7-2.2
		c0-1,0.3-2.1,0.9-3.2c0.4-0.7,2.2-0.6,3.7-0.4l3.4,0.2l-1.2-0.8c-2.3-1.6-7.6-1.1-10.1-0.5l-2,0.2l-3.2,0.5
		c-2.5,0.7-8.2-0.1-8.8-0.6c0.1-0.4,2.8-2.5,5.6-3.4c1.3-0.4,5.1-0.4,15.2,1.9l0.3-0.7c-1.6-1-8.2-3.3-13.2-3.4
		c-4.3-0.1-20.1-2.4-23.5-3c-4-0.7-10.6-2.4-12.3-3.3V139c0.2,0,9.1-2.7,9.1-2.7l-0.5-0.5c-1.5-1.8-4.3-6.3-4.3-10.7
		c0-0.4,0-0.8,0.1-1.2L53,117l-0.1-1c-0.1-1.1-0.3-2.3-0.3-3.2c0-0.2,0-0.4,0.1-0.6c2,1,3.6,2.8,4.5,5.1c0.6,1.6,1.7,6.9,1.9,8.8
		c0.4,3.8,3.4,8.8,5.2,9.4l0.6,0.2l0.1-0.6l-0.4-1.5l-0.7-2l0.4-1c0.2-0.5,0.7-1.6,1.2-2.3c1.1,2.1,3.7,5.2,4.9,6.2
		c0.9,0.8,5.7,3.5,8.3,3.5l0.1-0.8c-1-0.4-3.5-3.6-4.7-7.2c-0.7-2-1.4-7.6-1.4-10.5v-3.3c0,0,0.1-2.2,0.1-3.5
		c0.9,1.4,2.2,3.6,2.6,4.6l4.5,10.7c1.6,3.9,3.6,6.6,5.9,8.3c0.3,0.3,0.8,0.6,1.2,0.8c0,0,0,0,0.1,0l0,0l1.1,0.4l-0.6-1l0,0l0,0
		c-1.4-2.3-2.3-3.8-2.3-6.1c0-1.5,0.4-3.5,1.2-6.3c0-0.1,0.1-0.1,0.1-0.2v-0.1c0-0.1,0-0.1,0-0.2s0-0.2,0.1-0.3
		c0.4-1.5,0.6-3.1,0.6-4.6c0-1.4-0.1-2.5-0.3-3.2c2.2,1.4,3.7,4.6,4.3,6c1.5,3.9,1.8,8.3,1.8,11.4c0,0.8,0,1.5,0,2.1
		c0,0.1,0,0.1,0,0.2c0,3,1.5,5.2,4.7,6.9l0,0c0.1,0,0.1,0.1,0.1,0.1l0.5-0.6l-0.3-0.4c-2.2-2.5-2.9-3.3-2.7-5.2
		c0.1-1.2,0.6-2.1,1.2-2.8c1.2,5.6,2.3,9.3,7.3,12.5c3.1,1.9,6.8,3,10,3.9l6.3,2.3c3.8,2.1,5.4,3.7,6.6,5l1.5,1.5l-0.2-1.2
		c-0.7-4.1-3.1-7.5-6.9-9.8L117,145c-5.1-2.8-9.4-5.2-11.5-10.3l-2.2-6.3l-1.9-3.9c-2.2-2.9-4.9-8.3-5.5-10.3
		c-0.3-1.3-0.5-2.4-0.5-3.3c0-0.1,0-0.1,0-0.2l0.1,0.2c0.9,1.4,2,3.2,3.5,4.1c0.8,0.5,5,3.1,6.7,6l1.5,2.1c0.5,0.7,0.8,1,0.8,1.3
		c0,0.1-0.1,0.3-0.2,0.5l-0.6,3.2l0.4,0.4c0.2,0.1,0.3,0.3,0.3,0.3l0.5-0.9c0.7-1.4,1.3-2.6,3.2-2.5l5.4,1.4l1.5,0.4
		c-0.4,1.5-0.6,2.8-0.6,4c0,4,2,6.6,3.7,8.9l0.9,1.2l1.5,2c3.6,4.9,6.1,8.1,8.6,17.1c0,1.9-0.2,3.6-0.7,5c-3.1-4.8-6.3-7.5-8.5-9
		c-1.9-1.3-4.7-2.8-6.8-3.1c0,0,0,0-0.1,0l0,0h-0.1l-0.2,0.8c1.8,0.7,5.7,2.7,8.7,5.6c2.3,2.1,6.2,8.3,7.3,11.6l0.8-0.1l0.1-1.8
		l0.2-2.1l0.1-0.8c1.3-7.3,1.8-10-0.7-20.2l-1-7.2v-0.6c-0.1-2.4-0.1-5.2,0.5-7.6c0,0,0.2-1.2,0.6-2.7l1.2-1.5l3.2-4
		c0,0,2.6-3.2,3.6-4.4c0.8,2,2.2,7.8,2.2,9.5c0,0,0,1.4,0,1.6c0,3.7-0.2,4.4-4,13.9c-1.2,3.1-2.5,9.8-2.5,14.1c0,1.3,0.1,2.4,0.4,3
		l0.5,1.1l0.6-2.5c0.1-0.1,3-5.2,3.4-5.5c2-1.8,2.7-3.9,2.3-7c-0.2-1.8,0-3.9,0.5-5.8c0.9,1.7,1.7,4.3,1.2,6.8l-0.7,3l-0.5,1.4
		l-0.7,1.5l1.8-0.8c0,0,1.6-1.4,1.8-1.6c0,0,0.2-0.3,0.2-0.4l0.3-0.5l1-2.7c0.9-3.1,1.1-5.1,1.5-7.9c0.3-2.2,1.5-5.1,2.6-7
		c0.1,0.1,0.4,0.7,0.6,1.1l0.3,0.8c0.6,1.4,0,8.9-0.2,10.2l-0.3,1.2l2-2.2l1.9-2.3l1-1.5c0.5-1.2,0.8-2.2,0.8-3.3
		c0-1.5-0.4-3.2-1.2-5.9c-0.5-1.8-0.7-3.3-0.7-4.5c0-1.1,0.2-2,0.3-2.6c0.5,0.6,1.3,1.4,1.8,2c1.3,1.7,2.4,3.9,2.5,5.6v1.3l0.8-0.4
		c1.4-0.8,2.5-2.7,2.8-4.9v-3.2c0-0.7,0-1.4,0-2.2c0-2.6,0.1-5.4,0.7-6.4c1-1.6,1.4-1.8,2.3-1.8c-0.3,1-0.6,2-0.6,2.9
		c0,0.3,0.1,0.6,0.2,0.9v5.3v4.5l-0.3,4l0.6-0.3c0,0,6.2-3.7,6.3-3.7c0,0,0.4,0.4,0.6,0.7c-2.7,1.2-6.5,4.6-7.9,7l-2.2,3.7
		c-2,3.4-4.8,8.1-6.9,11.2l-0.9,0.9l-1.4,1.8c-0.6,0.7-0.9,1-0.7,1.4l0.1,0.2l0.1,0.1l0.6-0.1c1.7-0.6,3.1-1.4,4.2-2.6
		c3.8-4,5.5-7,7-9.8l1.2-2.2l1.7-2.5c1.6-2.3,5.2-5.3,7.5-6.6c-0.2,0.1,3.1,2.8,3.9,3.4c-3.3,4.8-7.3,8.7-10.3,10.4
		c-0.3-1.8-0.4-2.8-1.4-3.3l-0.5-0.3l-0.2,0.4c-5.7,9.5-7.3,10.5-10.1,12.4l-2.8,2c-0.5,0.3-0.7,0.7-0.6,1v0.2v0.1l0.2,0.1
		c0.3,0.1,0.7,0,1.1-0.3l0.9-0.6c1.9-1.3,5.9-4.1,7-5.9l1.2-1.7l1.4-1.8c0,0,0.9-1.1,1.5-2c0,0.1,0.1,0.8,0.1,1.4
		c0,0.6-0.2,0.9-0.2,0.9l-0.4,0.7c-0.5,0.9-1,1.5-1,2.3c0,0.1,0,0.5,0.1,0.7l0.2,0.6l0.4-0.5c1.9-2.6,5-4.8,6.8-6l0.9-0.6
		c1.3-1,8.3-7.4,9.8-14.4l0.2-0.8c1.1-5.2,2.4-11.1,4.6-12.4c0,0.3,0.1,0.9,0.1,0.9l0.2,4.5l-0.2,4.2c-0.6,6.2-5.8,13.5-7.2,15.1
		l0.5,0.6l4.5-2.3l8.4-3.8c3.1-1.9,5.6-4,7-6c1.5-2,2.5-4.2,3.1-6.5h0.1v-0.2c0.6-2.3,0.9-4.5,0.9-6.4c1,1.4,2,3.3,2,3.9h0.8
		c0.1-3.5,2.1-5.9,3.8-7.3c1.8-1.6,3.9-2.5,5.5-2.9c-1.2,1.8-1.9,4.2-2,5.7c-0.3,2.6-1.4,7.1-3.8,11.1l-0.5,0.8l2.4-0.7
		c1.4-0.4,2.9-0.8,3.8-0.6c-6.8,8.3-12.1,10.9-14.6,12.1c-3.4,1.6-6.3,2-9.2,2.3l-3.2,0.5c-4.9,0.9-9.4,2.8-14.5,6.3
		c-0.2,0.1-1.6,1.1-1.6,1.1l-1,0.7c-2,1.5-4.9,4.2-4.9,4.2c-2.8,2.5-4.8,4.3-8.5,5.5c-1.7,0.5-4.8,2.2-6.4,3.9c0,0,0.1,0.1,0.3,0.3
		c0,0.2,0,0.4,0,0.4l7.6-0.5c0,0,4.6-0.4,5.4-0.5c-0.1,0.8-0.8,2-1.4,2.7c-3.7,1-10,2.2-11.6,2.3l-5.1,0.3
		c-4.7,0.2-8.5,0.3-11.8,4.1l0.4,0.6c4.1-1.9,8.8-3,12.4-2.9c3.5,0.1,17.1-2.7,19-4l4.3-3.5c2.7-2.5,5.4-5,9.4-5.3
		c-1.6,2.5-5.8,7.9-8.9,10.1l-3.1,2.1l0,0c-4.1,2.6-8.5,4.6-13.7,2.6l-0.4,0.7c0,0,3.2,1.9,3.3,2l-3,0.2l-2.3-0.3
		c-3.7-0.7-8.2-1.6-11.4-0.7c-1.9,0.5-5.7,2.6-6.1,4.3l-0.2,0.9l2-1.1c1-0.7,1.9-1.3,4.7,0.3c4.4,2.5,6.7,5.5,8.2,7.4
		c0.9,1.1,1.5,1.8,2.2,2.1c-0.2,0.1-1.6,1-1.6,1l-0.9,0.2v0.8c2.6,0.5,6.9-0.4,7.9-4.1l0.1-0.5l-1.7,0.1c-2.6,0.2-3.1,0.3-4.7-1.7
		c-1.7-2.2-7-6.4-9.4-7.6c2.4-0.5,5.1,0.3,7.7,1.1c2.7,0.8,5.5,1.8,8,1.1c2.7-0.7,5-1.7,5.9-2.4l0.5-0.6c0,0-1.3-0.5-1.8-0.8
		c0.5-0.2,1-0.3,1-0.3c2.6-1,7.6-2.9,10.5-4.6l1.2-0.7l0.7-0.7l4.6-4.9l8.9-9.5H192c-4.8,0.1-9.8,1.7-13.2,4.1c-4.7,3.3-6.5,5-8.5,7
		c0.7-1.7,0.9-3,0.8-3.8c-0.3-0.3-4.5,0.5-4.5,0.5s-1.5,0.2-2.9,0.4c4.6-2.5,8-5.3,11.5-8.3l1.9-1.7c0,0,2.2-1.6,3.5-2.6
		c5.1-3.2,11.4-5.3,17.3-5.7c4.1-0.3,7-1.4,8.3-2c4.2-1.9,6.8-3.8,8.7-5.5c-1.3,9.4-6.4,20.4-9.6,27.2l-1.9,4.2
		c-0.2,0.4,0.1,1,0.7,1.5c0.4,0.4,1.6,1.1,3.4,0c11.2-6.7,19.1-23.6,21.4-44.1c0.5,0,1-0.2,1.4-0.6c1.1-1.2,1.2-4-0.8-6.6
		c0.1-1.5,0.1-3,0.1-4.5c0.7-0.1,1-0.4,1.2-0.7c0.7-1.1,0.4-3.2-1.3-5.1c0-0.7,0-1.4-0.1-2.1c-0.7-11.8-2-19.5-4.2-27
		c6.7,16,9.3,33.9,11.1,48.9l0.2,1.5c0.2,1.3,0.5,1.9,1,2.1c0.6,0.2,1.3-0.3,1.7-0.8c5-5,6-12.5,5.9-18c0-6-1.3-11.5-2.9-15.3
		c1.4,0.7,2.6,1.2,3.6,1.1c2.8-0.1,4.3-0.6,4.7-1.6c0.1-0.2,0.2-0.4,0.2-0.7c0-0.4-0.2-0.9-0.5-1.4c-1.3-2-13.3-21.5-18.7-30.8
		C235.6,67.4,241,72.7,245.7,73.5 M31.6,121.4c-0.6,0.3-1,0.4-1,0.4c0.7-0.4,2.5-1.3,3.4-1.8c0,0.1,0,0.2,0,0.3
		C33.4,120.6,32.3,121.1,31.6,121.4 M170.7,187.3c2.9-2,7.2-5.2,8.5-12.6c0.3-1.6,1.3-2.1,2.3-2.6c0,0.1,0,0.1,0,0.2
		c0,2.9-1.2,10.8-5.1,14.5c-2.5,2.4-4.9,2.4-6.8,2C170.1,188.3,170.4,187.8,170.7,187.3 M94,190.7l-2-0.5c0,0-0.3-0.1-0.5-0.2
		l0.2-0.1l1-0.5l-2.4-0.5c-0.2,0-1.9,0.2-3.2,0.4c0.6-0.5,1.5-1.3,1.5-1.3l-0.3-0.3l-2.3-3.5c-1.1-1.9-2.4-4.1-5-6.5
		c0,0-0.3-0.3-0.5-0.5c0.3,0.2,1.3,0.4,4.2,1.7c1.6,0.7,2.7,1.8,3.9,3.1c1.7,1.8,3.6,3.7,7,4.3c-0.1,0.5,0.1,2.4,0.1,2.4l0.8,2.2
		l0.3,0.5c-0.1,0-0.5,0.3-0.8,0.4c-0.1-0.1-0.7-0.6-0.8-0.6L94,190.7z M128.7,198.7c0.6-0.6,1.3-1.4,2.3-2c-0.4,0.6-0.8,1.4-0.8,2.5
		c0,1,0.3,2.2,1.1,3.6c0.4,0.6,0.8,1,1.3,1.4c-1.3,0.1-3.2-0.2-3.9-0.7c-1.4-1-2.8-2-3.3-3.3c0,0-0.4-0.9-1-1.8
		c-0.5-0.7-1.3-1.4-1.3-1.4l-0.8-1c0.1-0.1,0.2-0.1,0.3-0.2c1.5,0.5,5.5,2.5,5.4,3l-0.1,0.4L128.7,198.7z M128.6,181.3
		c0.2,0.2,0.3,0.6,0.2,1.1c-0.1,0.4-0.4,1-0.8,1.5c-0.6-0.6-1.2-2-1.6-3C127.7,180.8,128.3,181.1,128.6,181.3 M127.4,190.6v1.8
		l0.3,2.8l0.1,1.4c-1.2-0.7-2.8-1.4-3.8-1.9C125.2,193.4,126.3,192,127.4,190.6 M110.9,189.1l1.4-0.8l3.1-2.3
		c1.8-1.6,3.9-3.4,7.9-4.6c0.4-0.1,0.7-0.2,1.1-0.3c0.9,0.8,1.8,3.1,2,4.9c-1.4,1.7-3,3.4-3.8,4.1c-1.9,1.9-7.2,5.2-11.4,2.8
		c-1.3-0.7-1.7-1.7-1.7-3.2c0-0.1,0-0.1,0-0.2C110.1,189.4,110.9,189.1,110.9,189.1 M127.7,174.5c-0.4-0.2-0.8-0.2-1.2-0.3l-1.1-1.3
		c-0.8-1.1-1.5-2.2-4.3-3.1l-1.7-0.5c-1-0.3-1.6-0.5-2.1-0.8C123.5,168.8,126,171.6,127.7,174.5 M114.5,168.5
		c0.9,1.2,3.1,2.3,4.9,2.5c1.5,0.2,3.5,1.5,4.5,2.7c-1.4,0-2.8,0.1-4.3,0.4l-2.4-0.8c-2.9-0.9-6.7-2-7.8-3.6
		C111,169.1,112.7,168.6,114.5,168.5 M104.6,172.3c0.9-0.5,1.8-1,2.7-1.5c1.9,1.8,4.9,2.9,8.6,4.1l0.8,0.3c-2.4,1.1-4.8,2.7-7,4.8
		c0-0.4-0.1-0.7-0.1-1.1c0-1.3,0.4-2.2,1.6-4.1l0.2-0.4l-0.4-0.2c-1.4-0.7-3.9,1.4-6.5,3.7c0,0-0.2,0.2-0.4,0.3
		c-0.3-0.3-4.4-3.5-4.4-3.5c-0.1-0.1-0.1-0.1-0.2-0.1L104.6,172.3z M97,176l0.3-0.2c0.3,0.2,0.7,0.4,1.3,0.5
		c2.3,0.4,3.9,4.4,4.6,6.1l0.6,1.4l0.4-0.9c0.3-0.6,2.2-3.2,3.2-3.9c0,0.6,0.1,1.4,0.1,1.4c0.1,0.8,0.2,1.6,0.2,2.6
		c0,0.8-0.1,1.8-0.3,2.8c-0.2,0.7-0.2,1.5-0.2,2.1c0,1.7,0.4,3.1,0.7,3.8c-0.1,0-0.1-0.1-0.1-0.1c-0.5-0.2-1.7-0.9-2.4-2
		c-0.5-0.8-0.7-1-1-0.9c-0.4,0.2-0.3,0.3,0.3,1.9c0.6,1.4,2.1,2.3,4,3.3l1.5,0.9c3.9,2.4,9.3,0.1,11.4-1.4c1.4-1,2.8-2.3,3.9-3.4
		c-2.3,3.3-6.6,6-8.9,6.7c-2.9,0.9-8.7,1.3-11.7-0.3c-3-1.5-5.6-2.5-9-2.3c0,0-0.6-0.1-0.7-0.1c0.2,0,0.8-0.6,0.8-0.6
		c1-0.7,2.2-1,3.7-0.9c0.3,0,0.9,0,1-0.4c0.2-0.4-0.2-0.8-0.9-1.4l-1.1-1.1c-1.2-1.3-0.4-5.3,0.1-7.4c0.4-1.9-0.9-4.8-1.8-6.5
		C96.8,176.1,96.9,176,97,176 M108.5,157.4c-1.3,0.4-3.1,1-3.1,1c-2.9,1-6.2,2.1-7.9,2c-0.8,0-1.6-0.1-2.2-0.1
		C99.2,157,104.7,156.8,108.5,157.4 M239.6,59.3l1.3,1.9c0.8,1.2,5.2,7.1,7.4,9.8c-7.4-5.2-15-17-16.5-20.2
		c-1.6-3.4-14.3-12.6-17.8-13.3h-0.1l-0.9-2.2l-1.6-3.4c3.2,1.2,9,5.5,10.3,7c2.8,3.2,5.4,5.7,9.1,8.6
		C233.7,50,237.4,55.8,239.6,59.3 M207.4,30.8c1,0.4,2.6,1,3.1,3.7c0.1,0.2,0.1,0.4,0.1,0.6c0,0.5-0.1,0.8-0.4,1
		c-0.4,0.3-1,0.1-1.7-0.3c-0.9-0.6-5-3.6-5.7-4.6l-1-1.7c0,0.1,1.7,0.2,1.7,0.2l0.5,0.1l2.4,0.7c0,0,0.2,0.1,0.4,0.1l0,0L207.4,30.8
		z M209.3,29.8c-0.5-0.4-1-0.8-1-0.8s-0.5-0.3-0.7-0.4c0-0.6,0.1-1.1,0.1-1.5c7.5,3.7,18.1,9.7,23.3,16.7l-1.9-1.4l-5.7-4.3
		C219.3,34.7,214.6,30.9,209.3,29.8 M227,32.1L227,32.1L227,32.1L227,32.1 M226.9,29.9c-2.6-0.3-7.8-2.4-8.5-4.2l-0.8,0.2l0,0l0,0
		c0,0,0,0,0,0.1c0.7,2.7,3.5,4.7,6,6.2c4,2.3,9.9,8.4,11.7,11.6c0.6,1,3,2.9,5,4.5c0,0,0.9,0.8,1.7,1.4c-5.2-0.9-6-1.4-7.4-2.8
		l-2-1.5c-4.8-8.2-17.2-15.2-25.3-19l-0.4-0.7l-0.5-0.8l0.5-4c0.9,0.1,1.6,0.1,2.3-0.1C213.8,21.6,223,25.4,226.9,29.9 M204,36.1
		l0.2,1.1c0,0.1,0,0.2,0,0.3c0,0.6-0.3,1.2-0.8,1.5s-1,0.2-1.4-0.1l-2.1-2.8l-1.8-2.4v1.2c0,0.9,1.5,4.5,2.4,5.1
		c2.5,2,4.4,3.7,5.2,7.1c0.4,1.7,0.5,2.5,0.5,2.9c0,0.2,0,0.3-0.1,0.3l-1.5-0.8c-1.1-0.7-3.7-4-4.6-5.6c-0.7-1.3-2.4-7.6-2.7-9
		l-0.6-1.4l-2.2-2.5c-0.1-0.1-1.3-1.6-1.3-1.6l-0.8-0.6l-0.1,0.6c-0.2,4.2-1.9,5.6-4,6.4c-0.9-1-2.5-2.1-3.8-2.4l0,0l0,0
		c0,0-0.1,0-0.1-0.1l-0.2,0.7c0.5,0.3,2.3,3.3,3.1,5.4c0.6,1.5,0.7,2.5,0.4,3.1c-0.2,0.3-0.5,0.5-1.1,0.6s-2.2-1.2-2.4-1.8
		c-0.1-0.1-0.1-0.1-0.2-0.2l0,0c-0.1-0.2-0.3-0.5-0.5-0.4c-0.4,0.1-0.3,0.3-0.2,1.1c0,0.1,1,2.2,1,2.2l1.8,3.9
		c0.6,2,0.6,3.3,0.2,3.7c-0.2,0.3-0.6,0.4-1.3,0.3c-1.4-0.1-2.5-1-3.1-1.5l-0.9-0.7v0.8l0.5,2.3l0.4,1.5c0,0.7-0.1,1.6-0.6,2.1
		l-1.2,0.3c-0.8-0.1-1.6-0.9-2.1-1.5l-1.3-1.2l-0.1,0.9l-0.4,3.5c-0.2,1.1-1,3.3-1.5,3.6c0,0-0.5,0.2-2.1-1.6l-0.6-1.2l-1.4-2.5
		l-0.1,1l-0.2,1.1l-0.1,1l-1.5,3.8l-0.3,0.6l-1.5,1.7l-0.9,0.8c0,0-0.2,0.2-0.3,0.2c0.1,0,0.1-0.4,0.1-0.8v-0.6v-1.1
		c0-0.1,0-0.1,0-0.2c0-1.1,0.5-2.7,1-3.3l0.3-0.5l-0.6-0.1c-2-0.4-3.4,3.8-3.7,4.7c-0.4,1.2-1.1,2.2-1.8,2.6l-0.9,0.1
		c-0.3-0.2-0.5-2.3-0.5-3l-0.1-1l-0.3-0.8l-0.5,0.6l-0.3,0.6l-0.2,1.2l-0.3,1.4c-0.4,1.4-1.5,3.3-2.1,3.2c-1.1-0.1-1.6-1.6-2-2.9
		c-0.4-1.4,0.1-3.8,0.6-4.5L155,62l-1,0.2c-0.1,0-1.7,2-1.9,2.6l-0.9,2.9l-0.5,1.7c-0.2,0.5-0.9,0.8-1.5,0.9
		c-0.2-0.3-0.3-0.5-0.3-0.5c-1.5-2-3.1-4.1-3.7-5.8c0.9,0.4,3.1,1.4,3.1,1.4l-0.3-0.9l-0.6-1.4c-0.4-0.8-0.7-1.5-0.7-2.2v-0.1
		c0.4-2,2.3-2.2,6.1-2.4l2.9-0.2l0.2-1.5c0.3-2.5,0.6-4.5,3.7-6.6c1.5-1,1.6-2.8,1.8-4.7c0.6,0.7,0.9,1.9,0.9,3.2V49l0.8,0.1
		c0.3-1.3,2.5-4,5.1-5.7c-0.8,1.4-1.5,3.4-1.8,6c-0.5,4-1.7,4.5-3.5,5.1l-1.8,0.8c-1.8,1-3.9,2.3-3.9,3.6c0,0.1,0,0.2,0,0.3l0.1,0.6
		l1.9-1.4l3.5-2.3l4.4-1.4l4.6-1.4c3.3-1.6,5-4.3,5.4-8.8c0.1-1.1,0.8-1.8,1.6-2.6c1.1-1.1,2.2-2.3,1.4-4.6l-0.9-1.7l-2.9-3.6
		l-0.8-2.3l-0.4,1.3c-0.6,2.3-4.5,4.6-6.5,4.4l-1.7-0.3c-1.5-0.3-3.3-0.6-5.8-0.3c1-0.7,2.4-1,4.2-1.1l1.6-0.1
		c2.4-0.2,4-1.8,4.1-4.1c0,0,0-0.1,0.1-0.1l0,0c0-0.1,0.1-0.1,0.1-0.1l-0.8-0.1c-0.5,1.3-1.9,2.4-3,2.7c-0.9,0.3-1.9-0.5-2.6-1.7
		c2.1,0.2,3.4,0,4.2-0.8c1-1,1-3,0.6-5.8c-0.5-3.8,2.4-6.1,4.4-7.6l1-0.8c1.4-1.3,4-0.8,5.4,0c2.1-1.4,6.7-3.3,11.4-3.3
		c4.3,0,8.1,1.6,10.8,2.8l2.1,0.8l1.1,0.3h0.4l3.2,0.2c0,0,1.2,0,1.8,0c-0.2,0.6-0.7,1.3-3,1.6c-2.3,0.3-3.1,0.1-4.9-0.6l-0.9-0.3
		l0.7,1.5c0.3,0.7,0.6,1.1,1.2,1.5V20c-0.1,0.7-0.2,1.3-0.2,2c0,0.1,0,0.2,0.1,0.3c-0.7-0.6-1.4-1.2-2-1.7l-0.7-0.6
		c-0.2-0.1-0.4-0.1-0.6,0.1c-0.1,0.2-0.1,0.4,0.1,0.6l0.8,0.6c0.9,0.7,2,1.5,2.8,2.5c0.1,0.5,0.3,1.3,0.3,1.3s0.5,1.4,0.7,2.1
		c-0.7,0-2.1,0.1-2.1,0.1l-2.4,0.1l-1.8-1.6l-0.6-0.5l-0.7,0.2l0.8,1.5c0.7,1.2,1.7,2.9,1.7,4.5v0.1c-3.2-0.5-4.2-1.5-6.1-4.2
		l-0.6,0.2c0,0.1,0.1,0.3,0.1,0.3c0.7,2.7,3.4,4.7,4.6,5.1l1.7,0.7l1,0.7l1,0.8l0.2-0.7c0,0,0.1-0.4,0.2-0.8
		c0.1-0.4,0.2-0.8,0.3-0.9c0.2,0.2,0.5,0.4,0.5,0.4c1.3,1.3,3.5,3.5,5.5,4.5c1.2,1.2,2.7,3.3,3.3,4.9c0.7,1.8,0,5.4-0.6,6.4
		c0,0.1-0.1,0.1-0.1,0.1c-0.5,0-1.5-1.2-1.9-2l-0.4-1l-1-1.8l-0.5-0.6c0,0-0.4,0.9-0.3,1.4c-0.7-1.4-1.4-2.1-2.1-2.8
		c0,0-0.1-0.2-0.2-0.2c0.4,0.1,1.5,0.4,1.5,0.4l0.1-0.4c0.2-1.2-0.2-4.8-0.9-5.7l-0.4-0.6l-0.6-0.8l-0.9-0.6c0,0-1.1-0.8-1.2-0.6
		L204,36.1z M188.8,55.4c0.6-1.2,0.8-2.7,0.8-3.9c0-0.9-0.1-1.6-0.2-2.1l-0.4-1.3c0,0-0.2-0.6-0.3-1.1c0.1,0.2,0.3,0.4,0.3,0.4
		l1.2,1.9c9.5,23.5,18.9,37.6,25.5,46.2c0.2,1.6,0.3,3.1,0.5,4.5C209.2,93,193.5,68.8,188.8,55.4 M216.3,102.7
		c0,0.5,0.1,0.9,0.1,1.4c-8.4-6.8-19.1-23.4-24.8-37.5C197.7,79,207.2,94.1,216.3,102.7 M194.6,36.4c1.3,2.5,1.1,2.7,0.4,3.3
		l-0.3,0.3l0.3,0.3c0.6,0.6,1.6,2.3,1.4,4.4c-0.1,1.2-0.4,1.9-0.8,2c-0.3,0.1-1-0.3-1.6-1.4l-1.9-4.8c-0.7-1.4-1.3-2.1-1.8-2.5
		c0.4-0.3,0.8-0.6,0.8-0.6l1.6-0.9l0.2-0.1c0,0,0.1-0.1,0.1-0.2c0.2-0.3,0.8-1.1,0.8-1.1l1.2-1.3c0.1,0,0.6,0.4,1.2,2.2
		c0,0,0,0.2,0,0.3c-0.1-0.1-0.4-0.5-0.4-0.5l-0.6-0.1l-0.7,0.2L194.6,36.4z M190.7,48.6v-1.1l-0.2-4.6h0.1c0.2,1.2,0.9,3.8,1.6,4.9
		l2.7,2.5l1.5,1.3c0.5,0.6,1.2,2.6,1.7,4.2l0.9,2.5l4.4,8.9l0.4,2.1l0.2,1.9c0.3,0.7,0.9,0.8,1.3,0.9l0.8,0.4l4.1,6.7l2.4,3.6
		l1.7,2.5c0.4,2.9,0.8,5.8,1.1,8.6C208.9,85.2,199.8,71.3,190.7,48.6 M203.3,57.3c0.4,1.3,0.8,3.8,0.8,5.4c0,0.2,0,0.3,0,0.4
		c-0.7-1.1-1.8-3.3-2.5-4.8l-1.5-2.8c-0.5-0.7-2.4-6.7-2.6-7.6v-0.1c0-0.2,0.2-0.4,0.3-0.6c0,0.2,0.2,1,0.2,1s0.8-0.6,1.1-0.8
		c0.4,0.6,3,3.8,3,3.8c0.3,0.3,0.9,0.3,1.3,0.5c-0.2,0.8-0.4,2-0.4,3.4C203,55.9,203.1,56.7,203.3,57.3 M208.6,71.9
		c-0.1-0.1-0.1-0.3-0.1-0.5c0-0.6,0.3-1.4,0.5-2.1c0.5,0.3,1.1,0.5,1.5,0.4c0.4-0.2,0.7-0.4,1-0.9c0.6,2.7,1.4,6.7,2.1,11.2
		C211.7,77.2,209.1,73,208.6,71.9 M208.7,49.2l0.6,1c0.2,2.6,0.6,3.6,1.1,4.8c0.1,0.2,0.6,1,0.6,1c0.4,0.7,0.8,1.4,0.8,2.2
		c0,0.2,0,0.3,0,0.5s-0.1,0.9-0.3,1.6c-0.3,0.7-0.8,1.3-0.8,1.3l-0.2,0.5l-0.1,2.3l-0.3,1.6c0,0-0.2,0.8-0.4,1v-0.4l-0.5-1.6
		l-0.7-2.5L208,64l-0.5,2.4l-0.3,0.9l-0.4,0.7c-0.5,0.8-0.7,0.8-0.7,0.8s0-0.4,0.2-1c0.3-0.8,0.4-2.4,0.4-4.4c0-0.5,0-1.1,0-1.7
		v-1.5l-0.3-2.3c-0.3-1.3-0.6-3-0.6-4.4c0-0.4,0-0.7,0.1-1c0.9,0.2,2,0.2,2.6,0.3h0.4v-0.4c0.1-0.4,0.1-0.8,0.1-1.2L208.7,49.2z
		 M172.4,67.2c-0.2-0.5-0.3-1.2-0.3-1.7c0-0.4,0.1-0.6,0.1-0.7h0.4c0.5,0.2,1.3,1.2,1.9,2.7l0.3,0.8l0.7-1.5
		c0.4-0.8,0.8-1.7,1.2-2.5c5.9,16.3,19.1,37.7,28,47.4c0.2,1.3,0.3,2.9,0.3,4.5c-12.7-10.5-26.8-32.6-32.3-47.6l0,0L172.4,67.2z
		 M178.4,62.9c0-0.1-0.3-0.7-0.6-1.3c0.1-0.3,0.2-0.7,0.2-0.9c0.1-1.5,0.3-1.6,0.9-1.8h0.1c0,0.3,0.1,0.7,0.1,1.1
		C179.1,61.1,178.9,62.2,178.4,62.9 M145.3,87.1c0.5,2.4,1.7,5.7,2.9,7.2l-0.6,1.5c-0.2,0.7-0.4,1.3-0.5,1.9c-0.7-0.4-1.8-1-1.8-1
		l-1.9-1c-0.3-0.2-0.4-0.2-0.6-0.2l-0.2-1.4l-0.4-1.8c-0.6-1.7-1.4-4.1-1-5.2l0.5-1.3l1.8-4.5c0.2-0.8,1.1-4.7,1-6.5
		c0,0.1,0.1,0.3,0.1,0.3c0.6,1.5,1.2,3.2,1.2,4.3v0.1l-0.3,1.5c-0.2,1.1-0.5,2.4-0.5,4C145.1,85.7,145.2,86.4,145.3,87.1
		 M147.1,84.1l0.3-4.2v-0.6c1,0.7,2.4,2.4,2.8,6.3c0,0.3,0.1,0.7,0.1,1c0,1.6-0.4,3.2-1,4.7C147.9,89.8,147.1,87.5,147.1,84.1
		 M149.9,96.7c0-0.1,0.1-0.2,0.2-0.4c0.4,0.6,0.6,1.3,0.6,2.4c0,0.4,0,0.9-0.1,1.4c-0.2,1.6-0.5,2.5-0.8,3.1l-0.3-1
		C148.8,99.7,149.3,98.2,149.9,96.7 M121.2,10.2c0.7-0.7,4.6-1.1,7.1-1.2c4.7-0.1,7.5,1.1,9.6,2l1.4,0.6l0.8,0.2l0.9,0.1l0.7-0.1
		l0.5-0.1l1.3-0.5c0,0,0.7-0.3,0.8-0.3c-0.1,0-0.2,0.5-0.2,0.5l-0.1,0.3l-0.6,0.3c-1,0.6-1.8,1-4.5,1l-4.6-1.1
		c-2.2-0.7-4.7-1.5-6.9-1.5l-2.2,0.3l-2,0.5c-1.7,0.5-2.9,0.8-3.7,0.1C120.1,11,120.8,10.6,121.2,10.2 M131.7,13.7l-0.1,0.5
		l-0.2,0.5l-0.3,0.4l-0.4,0.3l-0.5,0.3l-0.6,0.2l-0.5,0.1l-0.5,0.1h-0.7l0.8-0.1l0.7-0.2l0.6-0.4l0.4-0.5l0.3-0.5l0.1-0.5l0.1-0.4
		L131.7,13.7z M124.8,14.1l0.2,0.5l0.3,0.5l0.5,0.4l0.5,0.3l1,0.2l-1.2-0.2l-0.4-0.1l-0.5-0.2l-0.2-0.1l-0.4-0.3l-0.4-0.4l-0.3-0.4
		l-0.2-0.5l-0.1-0.4l1-0.2v0.3L124.8,14.1z M126.1,14c-0.5,0-0.5-0.6-0.4-1.1c0.4,0,0.7,0,1.2,0.2C126.8,13.5,126.7,14,126.1,14
		 M118.5,29.8h-0.9c-1,0-3.4,0.7-5.9,1.5l-5.3,1.4c-3.3,0.1-5.1-1.2-6.2-2.9c2.1,1.3,4.4,1.1,8.3,0.1c3.7-0.9,4.6-1,7.8-0.8l5.8,0.4
		c0.1,0.1,0.1,0.1,0.3,0.3L118.5,29.8z M143.8,72.4c-0.6-1.4-2.1-3.3-2.5-3.9l0.2,1.4l0.5,1.9l0.6,3.6c0,2.1-1.1,6.6-1.7,7.7
		l-0.4,0.8c-0.3,0.7-0.7,1.6-1,1.6c0,0-0.4,0-1.1-1.3c-1.3-2.3-1.4-6.1-1.1-7.4l0.3-1.2l0.5-2.2l-0.6,0.1c-0.1,0-0.2,0.3-0.3,0.4
		l0,0l0,0c-0.7,0.5-1.2,1.6-1.4,4c-0.1,0.5-0.1,1.3-0.1,2.2c0,2,0.4,4.8,2.4,7.3l0,0c1.9,1.9,2.9,6.5,3.3,8.8
		c-0.1,0.1-0.2,0.2-0.2,0.2l0,0c0-0.1-0.4-0.8-0.4-0.8c-0.3-0.7-0.8-1.4-1.4-1.5c-0.7,0.4-0.3,0.9,0.1,1.8l0.6,2.2
		c0,0.8-1,2.9-1.9,3.5c-0.1,0.1-0.3,0.2-0.4,0.1c-0.9-0.4-2.5-4.3-2.8-5.7l-0.2-1.3v-1.6l-0.1-1.6l-0.5-0.1l-0.4,0.1l-0.2,0.2
		l-0.2,0.3l-0.1,1.2c0,0-0.1,0.8-0.1,1.2c-0.2-0.6-0.5-1.7-0.5-2.5l-0.1-0.5l-0.2-0.4l-0.5-0.1l-0.6,0.1l0.1,1.1V93l0.3,0.9
		c0.5,1.4,1,3.4,0.1,5c-0.2,0.5-0.5,0.7-0.8,0.7c-0.6,0-1.4-0.6-1.8-1.2c-0.6-0.9-0.7-3.4-0.8-4.9c0-0.2,0-0.9,0-0.9
		c0-1.1,0-1.5-0.8-2l-0.6-0.3c0,0-0.1,0.9,0,1.8c0,0.9,0.2,1.9,0.2,1.9c0,1.2-1.7,2.8-2.7,3.5c-0.5-0.7-1.1-2.3-1.1-3.7
		c0-0.2,0-0.3,0-0.4c0,0,0.1-2.2,0.1-3.2l0.1-1.7l0.4-1.6c0.3-0.8,1.4-3.2,2.4-3.2c0.2,0,0.2,0.5,0.3,1.3l0.3,2c0,0,0.2,1,0.5,1.9
		l0.3,0.8l0.3,0.6c0.6,1.2,1.1,1.8,1.7,1.7c0.5,0,1-0.5,1.8-1.7l0.5-0.7l1.3-2.1c0.6-1.4,1.5-3.2,1.5-3.2c0.6-1.6,1.1-7.6,0.2-8.9
		l-0.6-1l-0.7-0.9l-1.4-0.8l0.3,0.9l0.3,1.1l0.5,1.9c0.5,1.3-0.3,6.4-0.9,7.4l-0.5,1c-0.6,1.2-1.9,3.9-2.8,3.8
		c-0.4,0-0.6-1.2-0.7-2.1c0-0.3,0-2.1,0-2.1c0.1-2,0.2-4.9-0.5-6.7l-0.5-1.2l-0.8-1.5l-1.1-0.8V75v0.9v2.3c-0.1,2.5-0.8,3.4-1.9,4.7
		l-1.2,1.7c-0.5,0.7-0.8,0.9-1,0.9c-0.3,0-0.7-1-0.8-1.4c-0.3-0.9-0.5-5.1-0.3-6.4c0.1-0.3,0.2-1.1-0.3-1.2l0.3-3.6
		c0,0,3.6-2.7,4.3-3.3c1.1,2.4,2.1,3.7,3.3,3.6c2.4-0.2,4.2-3.9,4.7-5.7c1.2,1.5,1.8,3.1,1.9,5.1v0.6l0.5-0.2
		c1.5-0.7,3.6-3.3,3.9-4.7l0.5-3.7l-0.2-2l-0.2-2.1c0-0.6,0.4-1.8,1.3-3.4c2.1-3.7,2.3-11.2,2.2-12.4v-0.6l-0.5,0.3
		c-0.8,0.4-1,0.4-1.2,0.2l-0.7-0.6l0.1,0.9c0.1,0.8,0.1,1.7,0.1,2.8c0,3.2-0.3,6.9-1.3,8.7l-0.6,0.9c-0.8,1.3-1.2,2.1-1.2,5
		c0,0.9,0,2,0.1,3.4c0,0.1,0,0.2,0,0.3c0,1.7-0.8,3.7-1.6,4.5c-0.7-1.7-1-2.9-2.7-4.9c-0.1-0.1-0.1-0.1-0.1-0.1
		c0.1-1.6,0.1-3.5,0-4.2l-0.1-0.4l-0.5,0.1l-1.1,0.3v0.4c0.5,2.7-0.3,7.6-2,9.5c-0.5,0.5-1,0.7-1.5,0.7c-0.6-0.1-1.2-1.3-1.5-3.4
		v-2.3l0.4-3.3l-0.6,0.3c-1.3,0.7-2.9,3.8-3.1,5c-0.1,0.9-1.9,2.9-2.7,3.3c-0.2-1.4-0.4-2.4-0.4-3.2c0.1-0.4,0.2-0.8,0.2-1.2V67
		c0.1-0.3,0.1-0.6,0.3-0.9c0.9-2.2,2.1-4.2,3.6-5.4c0.1-0.2,0.2-0.4,0-0.6c-0.1-0.2-0.4-0.2-0.6,0c-1.5,1.4-2.8,3.4-3.7,5.7
		c-0.2,0.4-0.3,0.9-0.4,1.3c-1.1,1.4-3.3,3.6-4.9,3.7h-0.6c-2.5-0.6,1.7-6.2,2.7-6.7c2.6-1.4,3.7-2.2,4.6-4.6c0-0.1,0.1-0.1,0.1-0.1
		l-0.6-0.4l-2.4,1.6c-1.1,0.6-2.3,1.5-3.5,2.5c0.5-2.2,1.7-4.9,4-6.5c2-1.4,4-2.3,8.7-2.3v-0.8c-3.9-0.2-4.3-1-4.4-1.6
		c1.9-0.3,5.9-3.1,7.1-4.2c1.5-0.4,2.6-1.4,3.2-2.7c0.4-0.8,0.6-1.7,0.6-2.6c0-1-0.2-2.2-0.6-3.4l-0.3-0.9l-0.4,0.9
		c-0.2,0.3-0.3,0.5-1.2,0.3l-0.8-0.2l0.4,0.7c0.4,0.8,0.5,1.4,0.5,1.9c0,0.7-0.2,1.2-0.5,1.8c0,0-0.1,0.2-0.1,0.3
		c-0.1-0.4-0.3-0.7-0.3-0.7l-0.4-1.4l-0.8,0.1c0,1.3-0.5,2.6-1.4,3.8l-1.5,0.3c-0.1,0-0.1,0.1-0.1,0.1c0-0.1-0.1-0.1-0.1-0.2
		c0-0.3,0.2-0.7,0.3-0.9l0.6-2.1c-0.1-1.2-0.4-3.9-2.8-4.1l-2.4,0.4c-1,0.3-2.1,0.5-3,0.1c1-0.6,4.4-2.7,4.4-2.7
		c0.7-0.5,1.9-1,5.1-0.9c2,0.1,5.2,2.2,5.9,3.5l0.3,0.3l0.3,0.1c0.7,0.1,0.5-0.8,0.5-0.8c-0.6-1.5-2.5-2.9-3.9-4
		c0,0-0.3-0.2-0.4-0.3c0.1,0.1,0.5,0.2,0.8,0.3c1,0.5,3.2,2,3.9,3.8c0.2,0.5,0.5,0.6,0.8,0.6c0.2,0,0.5-0.2,0.4-0.9
		c-0.3-1.4-2-3.5-4.6-4.7L131,33l-2-1l-1.5-1.4l-3.7-3.1l-0.2-0.1l0,0l-3.1-1.6l-2.3-1.2c-1.3-2-2.3-3.5-4.6-3.4
		c-3.6,0.1-4.6,1.9-5.2,3.3c-0.4-0.2-1.9-1.7-1.8-3.2c0.2-2.7,3.4-5.5,5.5-6.1c0.4-0.1,1.1-0.3,1.5,0.1l-0.9,1.5l-2.4,1.1l-0.5,0.2
		c-0.8,0.3-0.7,0.7-0.6,0.8c0.1,0.3,0.6,0.5,1,0.4l1.8-0.5c0,0,0.2-0.1,0.3-0.1c-0.2,0.1-0.5,0.3-0.6,0.4c0,0.1,0,0.2,0,0.3
		c0,0.4,0.3,0.9,0.6,1.1c0.4,0.3,1.2,0.7,1.8,0.4c0.2-0.1,0.5-0.4,0.4-1.1c0-0.2,0-0.4,0.2-0.5c0.2-0.3,0.8-0.5,1.5-0.5l1.5,1.7
		c1.7,1.5,3.6,2.8,5.6,3.1l1.4,0.1c2.2,0.2,6.2,0.5,7.6,1.3l2.1,1.2l1.4,0.9l0.2,0.1c0.3,0.2,0.9-0.4,0.7-0.6l-0.2-0.4l-1.9-1.2
		l-1.7-1.1c-1.1-0.9-4-1.2-6.3-1.5l-2.4-0.4c-1.3-0.4-5.4-2.8-6.4-4.3l-0.5-0.8c-0.8-1.1-2.1-3-1.8-3.9c0.1-0.2,0.4-0.4,0.9-0.5
		c0.4,0,0.6-0.1,0.9-0.2c1.2,1.2,3.6,2.2,4.7,2.2c0.9,1.5,1.8,2.6,2.9,2.9c3.4,1.2,4.2,0.8,6.6-0.3l0.9-0.4l1.2-1l0.7-0.6l3-0.1h1
		c2.7,0,4.4-0.5,5.7-1c0,0.2-0.1,0.4-0.1,0.6c0,0.3,0.1,0.6,0.3,0.8c0.3,0.3,0.7,0.5,1.4,0.4c1.2-0.1,2.8-1.7,3.4-2.9l0.6-1.1
		l0.4-0.9c0.2,0.5,0.4,1.1,0.4,1.9c0,2.4-1.1,4.3-3,5.2c-2.1,0.9-3.5,1-4.6,0.9l0.2,0.9c1.7,0.5,4.6,1.4,4.7,2.6c0,0-0.1,0.9-0.1,1
		c-0.3-0.1-0.8-0.3-0.8-0.3c-1.1-1.1-3-2.1-3.8-1.7c-0.1,0.2-0.1,0.3-0.1,0.5c0,0.6,0.6,0.8,1.2,1.1l1.4,0.8l3.1,3l1.3,0.9
		c0,0,0.3,0.2,0.6,0.4c-1,0-1.8-0.1-2.4-0.8l-0.5-0.4l-0.4,1.1l-0.9,1.1l0.1,0.3c1.3,2.1,2.2,4.4,2.9,6.8l1.7,4.2
		c0,0,0.6,1.5,0.9,2.3c-1.5-1.1-3-3.5-3.2-4.3l-0.2-0.9c-0.6-2.3-1.2-4.1-2.2-4.8l-0.1-0.1c-0.1,0-0.1-0.2-0.2-0.2l-0.7-0.2l0.3,0.8
		l1.5,4.3l0.2,0.8l0.5,1.8c0.6,2,1.8,5.8,1.9,7.9c-0.7-1.4-1.6-3.6-2.1-5.3l-0.5-1.3l-0.8,0.2c0,0,0.2,3.9,0.4,5.7
		c-0.1-0.2-0.3-0.5-0.3-0.5l-0.5-0.8l-0.7,0.3l0.6,1.9l0.7,2.7l0.1,0.5c0.1,0.8,0.2,1.9,0.2,3.1c0,0.5-0.2,0.8-0.2,1.3
		c-0.6-1.4-1.1-2.5-1.7-3.1l-0.6,0.4c0.6,1.5,0.9,2.8,0.9,3.9c0,0.5-0.2,0.9-0.3,1.3l-0.9-2l-0.1,2.7c-0.5-0.3-1.9-1.1-1.9-1.1
		l0.8,2.7c-0.2,1.7,0.6,5.1,1.3,6.5l2.3,3.1c1.4,1.7,3.1,3.8,3.3,4.8l0.7,2.5c0.2,0.6,0.3,0.8,0,1.8c-0.3-0.3-0.5-0.6-0.8-0.8
		c-1-0.8-1.5-1.2-1.9-1.4l-0.7-1.6l-1.3-2.7l-0.8,0.1l-0.1,0.2v-0.5H143.8z M125.2,103.5l-0.6,0.7l-1.1,1.7l-1.1,3.2
		c-0.1,0.3-0.6,0.9-0.8,1c-0.1,0-0.1-0.1-0.2-0.2c-0.6-1.3-0.2-2.6,0.2-3.9l0.5-1.7l0.2-1.2l-0.9,0.9c-0.8,0.9-3.3,4.1-1,7.8
		c0.1,0.2,0.3,0.4,0.5,0.5c0.2,2-0.1,4.6-0.7,6.2c-0.8-1-1.6-2.3-1.8-4.5c-0.2-2.6,0.8-7.3,1.3-8.5s0.5-3.9-0.5-4.5l-0.6-0.4v1.6
		l-0.4,2.4c-0.5,0.7-2.2,1.9-3.3,1.8c-1.8-0.1-2.1-1.7-2.2-3.5c0-0.1,0-0.1,0-0.2c0-1.8,1.8-4.5,2.6-5.5c0.4,0.6,1.1,1.1,1.8,1.2
		c0.6,0.1,1.2,0,1.6-0.3c0.7-0.5,1.1-1.9,1.5-3.1l0.5-1.3l0.4-0.4l-0.1-0.6l-0.3-0.2c-0.3-0.1-0.8,0-1.1,0.4l-0.6,1.5l-0.5,1.4
		c-0.3,0.5-0.7,0.7-1.1,0.7c-0.3,0-0.6-0.4-0.7-0.9c-0.3-1.4-0.5-2.8,0.6-4.1c0.9-1.1,1.5-2.6,1.6-4.6v-0.4l-0.4-0.4
		c-0.5-0.1-0.8,0.7-0.9,1c-0.8,2.7-2,4.6-3.2,5l-0.8,0.3c-0.5,0.3-1.7,0.8-1.9,0.5c-0.5-0.6-0.3-3-0.2-4.1c0.2-2.1,1.1-3.8,2-5.5
		c0.9-1.6,1.7-3.2,1.6-4.8v-0.1c0.9-1.7,1.9-4.3,2.1-5c0-0.2-0.1-0.4-0.3-0.5c-0.2,0-0.4,0.1-0.5,0.3c-0.2,0.8-1.3,3.6-2.2,5.1
		l-1.6,0.5l-1.4,0.6l-0.8,0.3l-0.7,0.2c0,0-0.2-0.3,0.1-2.1c0.3-1.8,0.9-3.1,1.7-4l5.9-3.3l0.5-0.4c0.3-0.3,0.8-0.7,1.1-1.2
		c0.1,0.7,0.2,1.4,0.3,2.4l0.1,0.5l0.1,2.2l-0.3,2.2v0.6c-0.2,0.3-0.3,0.6-0.3,0.7c-0.2,0.6-0.3,1.5-0.3,2.5c0,1.2,0.1,2.6,0.2,3.6
		v0.7c0.2,2.2,1.6,3.4,3.1,3.8c0,0.2-0.2,0.8-0.3,1.3l0,0v0.3c0,0.3-0.1,0.5-0.1,0.5l0,0l-0.6,3.6c0.1,2,2.4,6.3,3.2,7l0.3,0.3
		l0.8-1.1c0,0,0.9-1.2,1.4-1.9c0.2,0.9,0.6,2.8,0.6,2.8c0,0.7,0.2,2,0.6,2.7l-2.1,5l-0.8,1.8l-0.6-1.8l0.6-2.7l0.4-2L125.2,103.5z
		 M121.7,112.3c0.5-0.1,1-0.4,1.4-0.8c0.2,0.5,0.4,1.6,0.5,2.5l-0.9,2.2c-0.4,1-0.8,1.9-1.1,2.9c-0.3,0.1-0.5,0.1-0.7,0
		C121.7,117.3,122,114.5,121.7,112.3 M115.4,111.5c-0.2,0.6-0.4,1.3-0.6,2.1l-0.8-2.3l-0.1-0.3c0.2-0.7,0.7-1.4,1.1-1.5
		c0.1,0,0.1,0,0.2,0C115.4,109.8,115.5,110.6,115.4,111.5 M112.5,97.5c-0.5,0.5-1.2,1.6-1.7,2.7c0.2-1.1,0.3-2.2,0.3-3
		c1.2,0.4,2-0.6,2.6-1.4c0.3-0.4,0.7-1,0.9-0.9C114.5,95,113.5,96.4,112.5,97.5 M118.4,87L118.4,87c0-0.1,0.1-0.2,0.1-0.2
		C118.4,86.9,118.4,86.9,118.4,87 M109.9,95.3c-0.1,0.7-0.2,1.6-0.3,2.6c-1.4-2.5-3.4-6.5-1-13.2c0-0.1,0.1-0.2,0.1-0.3
		c0.1-0.1,0.1-0.3,0.2-0.4c0.3-0.7,0.7-1.5,1.2-1.6c0.2-0.1,0.3,0,0.5,0.1c0.4,0.3-0.2,2.1-0.7,3.3l-0.9,3.9
		C109.3,92.1,109.5,94,109.9,95.3 M65.2,32.8l0.1-0.4c-0.1,0-0.1-0.1-0.2-0.2l-0.2-0.1c-0.2-0.1-0.5,0.3-0.5,0.3L63,33.8
		c-0.5,1.6-1.7,2.6-2.8,3.1c-0.8,0.4-1.5,0.4-1.9,0.3c0,0-0.2,0-0.3-0.1c0-0.1,0-0.3,0-0.3c-0.2-0.8,0.6-2.1,1.3-3.2l1-2.1l0.2-1
		l-0.8,0.7c-3.2,2.8-3.8,2.4-5.2,1.4c-0.2-0.2-0.3-0.3-0.3-0.6c0.1-1.3,2.5-3.5,2.8-3.7c1.6-0.8,3.4-1.2,4.2-0.9
		c0.7,0.3,0.6,0.9,0.4,1.9c-0.1,0.6-0.2,1.1,0.1,1.4l0.2,0.1h0.6c1-0.2,4.4-2.1,5.6-4.8l0.1-0.3l0,0l0.2-0.5l0.1-0.5l-0.1-2.1
		l-0.6,1.2l-0.9,1.5l-0.3,0.6c-1,1.2-1.8,1.9-2.3,2l-0.5-0.1c0,0-0.2-0.3,0.1-2.2l0,0l0.7-3.3l0.2-0.8L64,21.1
		c-1.3,2.3-2.5,3.5-3.9,3.8l0.2-0.4c1.4-1.5,1.3-1.9,1.3-2c-0.5-0.3-0.9-0.4-2.4,1.3c0,0-0.3,0.4-0.7,0.8c0.3-1,1.2-3.3,2-4.2
		L60,19.8l-1.3,0.8c-0.1,0.1-2.3,4.3-2.3,4.3l-0.2,0.6c-0.2,0.5-0.5,1.4-0.5,1.4c-0.4,1.5-3.5,2.9-4.5,3L50.6,30h-1.1l-0.1-0.2
		c-0.2-1.3,1.4-3,2.5-4.2l0.4-0.4l0.1-0.1V25l0.1-0.1l0,0l0.9-1.1c0,0,0,0,0-0.1c0-0.2-0.2-0.4-0.5-0.8c-0.6-0.7-1.6-1.7-1.6-3.1
		c0-0.5,0.2-1,0.5-1.6c1.6,0.6,6.9,1.3,10.3,0.1l5.8-2.5l3-1.2c1.4-0.2,4-0.5,5.9,0.3c1.7,0.7,2.4,1.2,3.1,2.2l-1.1-0.2h-1l0.7,0.7
		l0.7,0.6c1,0.8,2.4,2.1,2.8,3.5l-0.1-0.1c0,0-1.2-1-1.7-1.3l-0.3-0.1l0,0l-0.2-0.1l-1.1-0.2l0.7,0.8l0.5,0.5c0.9,1,2.3,2.6,2.5,4.2
		c-0.2-0.2-0.4-0.3-0.4-0.3l-0.3-0.2c-0.9-0.8-1.7-1.4-2.4-1.1L78.7,24l1.8,1.6l0.1,0.1c1.1,1,1.7,1.9,1.9,3
		c-0.6-0.3-1.3-0.7-1.3-0.7l-0.4-0.2L80,28.3l0.6,0.8l1.1,1l1,1.3c0.1,1,1,3.1,2,3.4c0.1,0,2,0.7,3.1,1.1c-0.6,0.4-1.3,0.6-2.4,0.2
		l-1.2-1.5c-0.7-1.1-1.5-2.6-3.2-2.4l-0.8,0.1l0.7,0.9l0.7,0.6l1.5,1.9c0,0,0.5,1.4,0.8,2.2c0,0,0.8,1.9,1.2,2.7
		c-1.6-0.3-2.4-0.7-3.5-1.8c0,0-0.4-0.6-0.5-0.7L80.2,36c-0.5-1.3-0.8-2.3-1.6-2.4l-0.5-0.1l0.1,0.5l0.2,1.2l0.2,3.1v0.1
		c0,1.2-1,2.3-1.9,3.4L75.2,44c-0.7,1.9-0.8,4.5,0.5,5.8c1.7,1.7,1.1,3.1,0.6,4.5l-0.5,1.9c0,1.7,0.5,2.5,2,3.3
		c2.6,1.4,5.1,0.8,9.6-1.2c2.1-0.9,7.6-1.6,11.3,2.1l0.6-0.5l-0.1-0.1c-1.3-2.1-2.5-2.9-3.5-3.5l-1.5-1.2c-1.1-1.4-1.7-3-1.7-4.6
		c0-1.3,0.6-2.6,1.3-4c0.4,1.2,1.1,2.6,2.1,3.9c0,0.1,2.6,2.6,4.2,2.8l0.8,0.1l-1.5-2.1c-0.9-1.2-1.3-1.8-1.3-2.6
		c0-0.3,0.1-0.7,0.2-1.2c0.1-0.3,0.5-1.5,0.8-2.4c0.5,0.9,0.8,1.8,1,2.9c0.4,2.5,1.6,3.9,3.5,4.5c4.8,1.4,7.5,6.6,8,11.1
		c0,0.4-0.1,0.8-0.1,1.1v1.1l-0.8,1.2c-0.8,1.4-2.2,3.7-2.9,3.3c-1.8-1-1.8-2.6-1.3-5.9c0.2-1.1,0-1.5-0.1-1.6l-0.2-0.1l-0.3,0.1
		c-0.5,0.2-0.7,1.4-0.7,1.6c-0.1,0.7-1.4,3.1-2.5,3.9l-0.5,0.2l-1.1-0.6c-0.5-0.7-0.2-2.2,0.1-3.5c0.1-0.6,0-1.2-0.3-1.5l-0.2-0.2
		l-0.3,0.1c-0.3,0.1-0.4,0.5-0.5,1.1C99.6,66.6,97,68,96.3,68c-0.8-0.1-1-0.3-1.1-0.4c-0.3-0.5-0.1-1.5,0.6-3.2
		c0.3-0.8,0.2-1.5-0.3-1.7c-0.4-0.2-1,0-1.4,1c-1.9,4.1-3.2,5.5-3.5,5.5c-0.1,0-0.3-0.2-0.4-0.7c-0.4-1.3-0.2-3.5,0.1-3.9
		c0.8-1,1.2-1.9,1-2.4L91.2,62l-0.4-0.1c-0.2,0-0.6,0.1-1.3,1.2l-0.3,0.6C88.5,65,86.8,68,85,67.8c-0.4-0.1-0.6-0.3-0.6-0.4
		c-0.4-0.8,0.5-2.7,1-3.5c0.3-0.5,0.5-1.2,0.3-1.6l-0.1-0.2L85.3,62c-0.4,0-0.7,0.4-0.9,0.7c-0.9,1.3-3.9,3.7-5.1,3.5
		c-0.4-0.1-0.9-0.2-1-0.6c-0.2-0.6,0.8-2,1.9-3c0.5-0.5,0.8-1,0.7-1.4L80.8,61l-0.3-0.2c-0.3-0.1-0.8,0.1-1.3,0.7
		c-1.7,1.8-3.5,2.5-6,2.6c0-1.4,0.8-4.7,1.6-5.9c0.3-0.5,0.6-0.9,0.6-1.2c0-0.1-0.1-0.2-0.1-0.3c-0.3-0.3-0.8,0-1.5,0.6L73.2,58
		c-0.3,0.6-0.6,1-2.9,0.9L70,58.5c-0.4-0.5-0.7-1.8-0.5-3.1l0.3-1l1-2.3c1.3-2.8,2.2-4.9,2.1-5.8V46l-0.5-0.3
		c-0.7,0-1.5,1.4-1.6,2.1c-0.1,0.5-2.5,2.3-3.6,2.5c-0.1-0.8-0.2-2-0.2-3.1c0-0.8,0-1.5,0.2-2.1c0.5-2.3,2.6-4,4.2-5.2l0.9-0.7
		c0.2-0.2,0.8-0.6,0.8-1.3c0-0.1,0-0.2,0-0.3L72.8,37l-0.4,0.4l-3.9,3.3c0.6-1.4,1.5-4,1.8-6.3c0.3-2.8,2.1-8.6,3-8.5
		c0.9,0,1.1,0.5,1.2,1.5c0.4,2.6-1.7,5.1-2.4,5.8c-0.7,0.7-0.5,1.1-0.4,1.2c0.1,0.1,0.5,0.5,1.3-0.1c2.1-2.1,4.1-5.9,4-9.1
		c-0.1-1.8-0.4-2.8-1.1-3.3c-0.5-0.3-1.1-0.3-1.8,0c-3,1.2-6.1,7.7-6.2,13c-0.1,5-3,8.2-4.4,9.2c-0.6,0.4-1.8,1.2-2.2,1
		c-0.1-0.1-0.2-0.4-0.2-0.9c0-0.6,0.2-1.2,0.5-1.4L61,42.1c-0.1,0-0.1,0.1-0.1,0.1l0,0l0,0c-1.1,0.4-1.2,1.1-1.3,1.8l-0.4,1.3
		L58.6,46c-0.7,0.9-1.5,1.9-2.5,2.2c-0.1-0.5-0.2-1-0.2-1.6c0-1.1,0.1-2.3,0.4-3.1l0.4-1.6l0.4-1.3l-0.4-0.2c-1-0.3-1.5,0.9-1.8,1.8
		c-0.5,1.1-2,3.4-3.1,3.9c-1.8,0.8-2.6,0.6-2.9,0.5L48.4,46c-0.1-0.2,0.4-1,0.8-1.6c0.8-1.2,1.8-2.9,1.6-4.6v-0.1l-0.2-1.1l-0.6,1
		c-0.8,1.3-2.9,4-4.7,4.3L44,43.6l-0.6-0.7l0.4-0.8c0.2-0.3,1.8-2.1,1.8-2.1c1.5-1.6,3.2-3.4,2.7-5.2l-0.2-0.7l-0.5,0.6
		c-3.4,4.5-4.7,5.1-8,5l-0.4-0.1V38c0.2-1.8,1.5-3.2,2.5-4.3l1-1.2L42.1,32c-2.7,2.3-9.3,4.3-12.8,2.6c0.3-0.1,0.7-0.3,0.7-0.3
		c5.1-1.1,10.1-2.9,15.9-5.6l1-0.6l1.4-0.8c-0.1,0-0.3,1.6-0.3,1.6l-0.8,2.7c-0.3,0.7-0.4,1.2-0.4,1.5c0,0.2,0,0.3,0.2,0.4l0.2,0.2
		l0.5-0.1l1.5-0.7c0.6-0.3,1.7-0.9,1.9-0.6c0.4,0.7,0.3,1.3,0,2.8c-0.3,1.2-0.4,1.6,0,1.9c0.3,0.3,0.7,0.1,1.5-0.4
		c0.1,0,1.1-0.7,1.1-0.7l1-0.5l1.7-0.1c0.1,0,0.1,0,0.2,0.1c0.2,0.4,0.1,1.4-0.5,2.4L55.8,38l0.3,0.5l0.1,0.1
		c0.2,0.4,0.5,0.5,1.1,0.5l2.4-0.5l0.7-0.2c0.4-0.2,1.4-0.8,1.4-0.8c0.5-0.5,0.7-0.5,1-0.3c0.7,0.4,1.1,0.3,1.3,0.1
		c0.4-0.3,0.5-0.8,0.5-1.3c0-0.6-0.1-1.1-0.2-1.3c0-0.1-0.1-0.2-0.1-0.3s0-0.1,0.1-0.2l0.6-0.7L65.2,32.8z M103.9,72.1l-0.3-0.3
		l-0.6,0.4l-1.9,2.6c-0.5,0.9-1.5,1.4-2.2,1.7c0-0.1-0.1-1.2-0.1-1.2c0-1.3,1.1-2.2,2.2-3l1.3-1.2c0.1-0.1,0.1-0.2,0.1-0.3
		c0.7-0.2,1.4-0.6,1.9-1.1c0.1,0.3,0.5,1.3,0.8,2.1c-0.6,1.8-1.4,3.1-3.1,4c0.5-0.9,1.3-2.2,1.7-2.6c0.3-0.3,0.4-0.6,0.4-0.8
		C104.1,72.3,103.9,72.2,103.9,72.1 M96.7,70.5c1.2-0.5,2.3-1,2.8-1.3c0.1,0.1,0.1,0.3,0.1,0.3l0.5,0.7L99.5,71
		c-0.8,0.7-2,1.4-2.8,1.4c-0.2,0-0.2,0-0.2,0l0.3-1.6C96.7,70.8,96.7,70.7,96.7,70.5C96.7,70.6,96.7,70.5,96.7,70.5 M92.8,71.8
		l0.4-0.1c0.3,0,0.8-0.2,1.3-0.3l-0.1,1c-0.1,0.2-0.1,0.4-0.1,0.6c-0.7,0.8-2,1.8-3.3,2.4l-1.5,0.2h-0.2l0,0
		c0.2-0.6,0.3-1.2,0.5-1.8c0.1-0.2,0.3-0.5,0.5-0.8l0.4-1l0.3-0.5l1.4-0.5l0.5,0.1c-0.1,0-0.1,0.2-0.1,0.2
		C92.7,71.3,92.8,71.8,92.8,71.8 M93.1,70.9L93.1,70.9L93.1,70.9L93.1,70.9z M87.5,72.7l0.7-0.3c-0.3,0.6-0.7,1.1-1.2,1.4
		c-0.8,0.4-1.7,0.8-3,1c0,0,0.1-0.1,0.1-0.2l0.3-0.5c0.6-0.8,1.1-2.5,1.3-3.5c0.8-0.6,1.6-1.3,2.1-1.9c0,0.2,0,0.4,0,0.5
		c0,1.1-0.3,2-0.8,2.7L86.3,73L87.5,72.7z M81.9,68.8c0.2,0.8,0.2,2.1-0.4,3.1l-0.3,0.6h0.7c0.5,0,1-0.1,1.6-0.4
		c-0.5,1-1.4,2.2-1.9,2.5c-0.6,0.4-1.8,0.6-3,0.7c0.4-1.6,0.7-3.1,1-4.7l0.3-1.5c0,0,0-0.1,0-0.2c0.1,0,0.3-0.1,0.4-0.2
		c0.5-0.2,1-0.4,1.4-0.7C81.6,68.1,81.9,68.8,81.9,68.8 M76,67.4l-0.4,0.3L74,69.1c0,0-0.7,0.2-1.2,0.4c0.1-0.5,0.3-1.1,0.3-1.1
		l0.4-1.4l0.6-0.2l1.5-0.7l0.5,0.1l0.1,1.1C76,67.3,76,67.4,76,67.4 M70.2,68.3l-0.8,4.2c-1.4,9.9-10.7,30.3-24,42.8
		c0-0.4-0.1-0.9-0.1-1.3c6.9-6.8,13.1-18,16.5-25.9c2.7-6.5,7.1-18.4,8-25.3c0.2-0.1,0.4-0.2,0.4-0.2s0.7-0.4,1.2-0.5v0.1
		c0,1.1-0.3,2.4-0.7,3.7L70.2,68.3z M51.3,121.9c0,1.1,0,1.9,0,1.9c0,0.4,0,0.8,0,1.1c-0.6,0.5-2,1.3-3.6,1.8
		c-0.5,0.2-1,0.2-1.3,0.3c-0.1-0.7-0.2-1.6-0.3-2.6C47.5,123.5,50,122.1,51.3,121.9 M45.8,121.3c0-0.5-0.1-1-0.1-1.5
		c1.6-1,4.2-3,5.6-4.1c0,0.5,0,1.1,0,1.9C50,118.9,47.3,120.9,45.8,121.3 M45.5,116.9L45.5,116.9c-0.1-0.2-0.1-0.4-0.1-0.6
		c2.1-1.9,4-4,5.9-6.2v2.9C49.7,114.4,47.6,115.9,45.5,116.9 M46.1,98.9c0.7-1.4,4.7-12.3,5.2-14.8l0.3-1.4
		c0.8-3.3,2.5-10.4,2.4-14.2l4.5-7.9c0.4-0.6,0.6-1,1-1.6c-0.9,9.9-5.7,32.4-14.6,43.6c0-0.8,0.1-1.5,0.1-2.3
		C45.6,99.9,45.9,99.4,46.1,98.9 M46,93.8l0.4-2.3c1.1-6.2,2.1-10.9,4.5-16.7L50.2,79l-0.5,2.2C49.4,82.9,47.1,90.6,46,93.8
		 M60.5,57.7c1.7-2.7,2.8-4.8,2.9-5.9v-2.2c-0.1-1.5-0.1-2.5,0.7-4l0.1-0.1c0.3-0.2,0.6-0.5,0.9-0.7c-0.9,2.2-1.3,5.3-0.5,9.3
		c-0.3,20.1-10.3,44-19.6,53.4c0-1.2,0-2.4,0-3.6C54.9,92.3,60,66.9,60.5,57.7 M66.7,53.9c0.4-0.2,1-0.4,1.4-0.6
		c-0.1,0.4-0.2,1.1-0.2,1.6l0,0v0.4l0,0c0,0.3-0.1,0.4-0.1,0.4l0,0c-0.1,2.2-0.2,5.1,0,6.6c-1,6.3-5.1,18.3-8.1,25.5
		c-4,9.6-9.9,19-14.6,23.5c0-0.5,0-0.9,0-1.4C55.2,100.6,66,77.3,66.7,53.9 M34.2,52.7c-0.2-0.2,0.5-1.6,0.5-1.6l0.3-0.6l0.2-0.9
		l0.7-1.3l0.8-0.7c1.9-1.8,3.3-3,4.4-1.9l0.7,0.6c0.4,0.3,0.6,0.5,0.6,0.7c0,0.5-1.2,1.6-2.1,2.4l-0.6,0.4L34.2,52.7z M9.9,52.6
		c0.5-0.4,1.9-0.8,2.7-1.1l1.6-0.5l1.5-0.7l5.1-2.5l0.6-0.3l0.8-0.4l2.1-1.2c1.4-0.8,2.9-1.6,4.4-2.5c-0.1,0.3-0.2,0.5-0.2,0.5
		c-0.3,0.6-0.6,1.1-0.8,1.5C23.6,48.8,15.4,51.8,9.9,52.6L9.9,52.6 M26.7,50.8c-2.2,0.7-8.4,2.1-13.7,2.2h-0.5c-0.1,0-0.4,0-0.6,0
		c4.6-0.9,10.9-3.1,15.1-6c-0.2,0.6-0.4,1.4-0.4,1.6c0.3,0.3,4.9,0.1,4.9,0.1s0.5,0,0.9,0C30.6,49.5,27.6,50.6,26.7,50.8 M29.9,46.5
		c0.3,0,1.4-2.3,1.4-2.3l1.1-1.7l0.9-1.7c0.9-0.6,1.6-1.1,2-1.5c0.7-0.8,1.3-1,1.5-0.9c0.3,0.1,0.3,0.5,0.4,0.7l0.2,1.3l0.4,0.7
		l0.6,0.6c0.4,0.4,0.5,0.6,0.5,0.7c0,0.4-0.7,0.9-2,1.7l-2.2,1.4l-0.4,0.3C33.1,46.2,30.4,46.6,29.9,46.5 M5.1,71.6
		c0.1-0.3,0.3-0.5,0.6-0.6l5.8-2.2l0,0l0,0l9.2-4.8l12.8-8.7l1.5-0.6c0.3-0.1,0.7-0.2,1.1-0.4C28.5,61.1,14.4,69.2,5,72.2
		C5,72,5,71.8,5.1,71.6 M25.2,68.4c-7.7,3.5-17.7,6.1-19.9,4.5c10.1-3.2,25.8-12.5,33-19.5l0,0c1.5-0.7,3-1.6,4.3-3l0.5-0.5l0,0
		c0.7-0.6,1.6-1.4,1.6-1.4c0.5-0.5,1.1-1,1.6-1.6c-0.4,1.2-0.7,2.2-0.6,2.9l0.1,0.3h0.9c-4.1,7.2-6.8,8.8-8.4,8.8L38,58.8
		c-0.3-0.4-0.2-1.4-0.1-2.2l0.2-2L37.3,55c-1.1,0.7-1.1,1.9-1.1,3.1c0,1.1,0,2.2-0.8,3.1L31,64.7l-1.2,0.8
		C29.7,65.6,26.7,67.4,25.2,68.4 M9.9,90.1c5.5-4.2,13.7-11.9,16.3-15.1l4.2-4.6l2.1-2.3l0,0c0.7-0.7,1.5-1.6,1.5-1.6
		c2.4-2.7,4.7-5.2,5.5-5.7c0.3,0,0.6-0.1,0.9-0.2c-10.5,14.8-24,27.6-33.5,33.5C6.9,93,7.8,91.6,9.9,90.1 M21.5,88.2
		c-0.2,0.1-0.9,0.8-0.9,0.8c-2.3,2.1-5.8,5.3-10.6,6.8c-0.8,0.2-2.2-0.1-2.8-0.9c9.8-6.1,24-19.6,34.7-35.1c0.4-0.3,0.8-0.6,1.1-1
		c0,1.5-0.3,3-1.3,4.8c-2.2,2.5-4.6,5.7-5.8,7.4l-2.1,3.2C30.7,78.9,26.3,83.8,21.5,88.2 M17.4,119.7c1.1-7.5,2.9-14.2,5.5-20.4l0,0
		c3.1-7.1,8.6-17.9,14.2-25.8c2.8-4,4.9-6.7,7.2-8.8c-7.6,11.1-22.9,36-26.9,61.9C17,126,16.8,124,17.4,119.7 M28.6,98.6l-2.8,7.8
		c-2.4,6.4-5.3,14.3-5.8,17.6c-0.2,1-0.6,1.9-1.2,2.3l-0.6,0.2c4-25.6,19.1-50.3,26.7-61.4c-1.7,3.3-3.8,7.5-5.5,11.1L37,80.9
		L28.6,98.6 M55.2,164.2c0.4,1,0.7,2,0.7,2.3v0.1c-0.1-0.1-0.8-0.4-3.4-2.9c-6.9-6.4-12.1-21.7-13.5-27.1
		c-4.6-17.4-3.2-40.7-1.2-51.3l2.9-5.7C36.2,104.1,37.5,138.9,55.2,164.2 M53.4,160.1C37.5,134.3,37.2,99.8,42,76.6l1.2-2.4l0.8-2
		c1.4-3.4,3.7-9.1,5.9-11.9c2.7-3.5,3.2-5.4,3.2-6.7c0-0.4,0-0.8-0.1-1.1l0-0.7c0-0.1,0-0.3,0-0.4c0-0.4-0.1-0.8-0.4-0.9l-0.2-0.1
		h-0.5c-0.3,0.1-0.5,0.5-0.5,1s-0.3,3.1-1.5,5l-2.4,2.5l-2.9,2c-0.1,0.1-0.2,0.2-0.4,0.3c0-1.8,0.6-3.8,1.2-5.6c0,0,0,0,0-0.1
		c1.5-2.3,2.5-4.6,2.9-5.7l1.4-0.3c0,0,3.5-1.2,3.5-1.3c0,0.7,0.3,3.3,0.3,3.3l0.7-0.2l4.3-1.9l1.1-1l2-1.4c0.1,0.7-0.1,1.2-0.8,2.9
		c-0.1,1.8-0.7,3.7-1,3.9c0.2,0-0.4-2.6-0.4-2.6L59,49.4l-0.5,0.9l-0.3,0.5L58,51.4l0.1,1.6v1.2l-0.8,3.1c-0.1,0.1-3.5,6.6-3.5,6.6
		c-0.1,0.1-6.8,10.4-9.4,24c-1.2,6.7-1.8,13.3-1.8,20.2c0,5.4,0.4,11,1.2,16.9C45.9,141.8,50.3,152.7,53.4,160.1 M55.2,135.7
		c-0.2,0-2.7,0.6-4.2,1l-2.6,0.7l0,0l-1.5-7.9c2.6-1.5,4-2,4.7-2.1c0.1,0.4,0.2,0.8,0.3,1.2c-1.8,1-2.9,1.8-3.1,2.7l-0.1,0.4v0.5
		l0.2,0.5l0.3,0.6c0.9,1.3,4.6,1,5.4,0.9l0,0C54.5,134.7,55.2,135.7,55.2,135.7 M53.1,132.4c-1.9,0.2-2.4-0.1-2.5-0.3c0,0,0,0,0-0.1
		c0-0.4,1.2-1.2,1.8-1.5C52.4,130.6,52.9,131.8,53.1,132.4 M54.2,110.4c-0.7-0.4-1.5-0.6-2.5-0.5h-0.2c10.4-12.5,17.5-29,18.7-37.6
		H70h0.1c1.5-0.4,4.1-1.1,6.5-2c-1.4,4.9-6,16.7-8.8,21.8C63.7,99.3,60.4,103.5,54.2,110.4 M57,112.5c-0.3-0.3-0.6-0.7-1-0.9
		c-0.1-0.1-0.1-0.1-0.2-0.2c2.5-2.8,9.8-11.2,13.6-18.6c1.6-3.2,4-8.1,6-13.2c-1.5,5.1-3.2,9.9-5.1,13.7
		C66.6,100.7,62.6,106,57,112.5 M58.3,114.3c5.8-6.5,9.1-10.9,13.6-20.1c3.3-6.6,5-12,6.2-17l3.2-0.3c-2.5,11.1-12.5,28.9-22.9,37.8
		C58.4,114.6,58.4,114.4,58.3,114.3 M58.8,115.4c11-9.3,20.9-27.5,23.3-38.7c1.3-0.2,3.5-0.6,5.1-1.2c-4.7,17.3-14.7,33.4-27,43.6
		C59.9,117.9,59.5,116.6,58.8,115.4 M61.2,123.4l-0.1-1c0-0.2-0.1-0.7-0.2-1.2c4-3.3,7.7-6.9,11-10.9c-0.2,0.8-0.3,2.1-0.4,3.6
		C69.3,116.5,64.6,121.4,61.2,123.4L61.2,123.4z M61.5,125.3c2.5-1.4,7.3-6.1,9.9-9v0.3c0,0.5,0,1.1,0,1.6c-2.7,2.7-6.6,6-9.6,8.2
		C61.6,126.1,61.5,125.7,61.5,125.3 M67,124.5l-0.3,0.2c-0.5,0.3-1.7,1.5-2.3,3.2c0,0-0.9,1.7-1.3,2.7c-0.5-0.8-0.8-2-1.1-3.2
		c2.9-2.1,6.7-5.2,9.5-8c0,0.8,0,1.5,0,2.3v2c-0.3,0.3-2.1,1.2-3.1,1.7c0,0-0.3,0.2-0.6,0.3C67.7,125.7,67,124.5,67,124.5
		 M68.2,128.1c0.1,0,0.2-0.1,0.2-0.1s2.6-1.5,3.2-1.8c0.5,1.4,1.3,5.1,1.4,7C71.6,132.6,68.9,129.2,68.2,128.1 M72.5,109.5
		L72.5,109.5c4.3-5.5,8.1-11.7,11.2-18.4c-2.8,7.9-6.5,16.2-9.9,19.4C73.3,110.1,72.9,109.8,72.5,109.5 M75.8,113
		c-0.3-0.4-0.6-0.8-0.8-1.2c6.3-6.9,13-26,14.2-34.4c0.9-0.1,1.7-0.4,2.6-0.8C90.6,83.7,82.1,105.3,75.8,113 M76.2,113.7
		C82.7,106,91.7,83,92.6,76.3c0-0.1,0-0.1-0.1-0.2c0.2-0.1,0.4-0.2,0.5-0.3l0.8-0.7c0.8-0.7,1.1-0.9,2-0.8c0.1,0.6-0.1,2.1-0.3,3.3
		l-0.1,0.6c-0.1,0.2-0.1,0.3-0.1,0.5c-1,8.9-9.4,31.3-17.5,38.3C77.8,116.8,77.2,115.4,76.2,113.7 M79.9,121.8l-1.3-3
		c3.9-3.8,7.6-9.9,10.6-16.3c-1.4,3.8-2.9,7.6-4.5,10.9c0,0,0,0-0.1,0h-1.1l0.8,0.6C82.9,117.1,81.4,119.8,79.9,121.8 M80.8,123.8
		c1.8-1.9,3.5-4.6,5.1-7.9c0.1,0.3,0.1,0.8,0.2,1.4c0,0.1,0,0.1,0,0.2c-1.1,1.6-3.6,5-5.2,6.7L80.8,123.8z M84.7,128.1l-0.2,0.7
		c-0.1,0.4-0.2,1.4-0.1,2.5l-1-1.4l-0.6-1.3l0.3-0.3c0.6-0.5,1.2-1,1.8-1.6C84.9,127.2,84.8,127.7,84.7,128.1 M85.8,122.8l-2.6,2.8
		l-1.2,1l-0.8-1.7c1.4-1.4,3.5-4.3,4.9-6.1C86.1,120.1,86,121.4,85.8,122.8 M88.5,114.2c-0.5-0.3-1-0.5-1.6-0.6
		c5.1-11.6,9-27.6,9.7-34L99,79l1.2-0.4c0.3,0.2,0.7,0.1,1.1,0.1C99.7,88.1,94.9,104.4,88.5,114.2 M93.4,120.8
		c-0.4-1.2-1-2.4-1.6-3.4l2.4-3.3l0.2-0.3c0.2,0.8,0.4,1.6,0.7,2.5c0.1,0.4,0.3,0.7,0.5,1.1c-0.2,0.3-0.3,0.6-0.3,0.6L93.4,120.8z
		 M108,141.8c2.1,2.1,11.8,7.4,13.3,8.1c1.2,0.6,2.6,1.9,3.6,3.2c-1.7-1.4-3.5-2.6-5.3-3.2l-1.2-0.4c-4-1.4-13.4-4.6-16.1-8.4
		c-0.7-1-0.9-1.9-1.4-2.8c0.5,0.3,1,0.5,1.8,0.4c0,0,1.2-0.7,2-1.2C105.6,139,106.8,140.7,108,141.8 M102.1,130.9
		c0.2,0.8,0.6,1.8,0.6,1.8l0.7,2.4c0.1,0.2,0.2,0.5,0.4,0.7c-0.7,0.5-1.5,1.1-1.9,0.9c-0.3-0.1-0.4-0.6-0.5-0.9
		c-0.1-0.4-0.1-0.9-0.1-1.3C101.2,132.9,101.6,131.7,102.1,130.9 M101.2,128.6c-0.1-0.3-0.6,0.9-0.6,0.9l-1,3.2
		c0,0.5-0.1,1.2-0.1,1.8c0,0.5,0.1,0.9,0.1,1.4c-0.6-1.8-0.9-3.4-1-4.9l0.7-1l1.6-2L101.2,128.6z M99.8,125.7L99,127
		c-1,1.6-2.5,3.7-3.6,4.7c-0.1-1.3-0.2-2.7-0.3-4.1l2.2-3.4l0.9-1.4C98.7,123.8,99.3,124.8,99.8,125.7 M96.1,120.2l0.4-0.6
		c0.4,0.8,0.8,1.6,1.1,2.3l-1.1,1.8l-1.7,2.7c-0.2-1.1-0.4-2.2-0.7-3.2L96.1,120.2z M95.6,107.6c-0.1-0.2-0.2-0.3-0.3-0.4l-0.3-0.7
		l-0.4,0.7c-0.4,0.8-0.7,2-0.6,3.6l-0.4,0.7c-0.7,1.4-1.8,3.3-2.9,4.5c-0.5-0.5-1-0.9-1.5-1.3c6.5-10,11.4-26.8,13-36.2
		c0.6-0.2,1.1-0.6,1.7-0.9l0.7-0.4c0.1,0,0.2-0.1,0.3-0.2c-0.1,0.6-0.2,1.1-0.2,1.7C102.6,88.9,98.5,101.8,95.6,107.6 M97.6,110.2
		c-0.3-0.4-0.6-0.7-0.9-1.1c1.5-2.6,3.1-6.8,4.5-11.5C100.1,102.7,98.9,107.3,97.6,110.2 M99.9,112.9c-0.3-0.2-0.7-0.7-1.1-1.2
		c3.8-6.8,6.8-26.7,8-35.6c0.3-1.4,0.4-2.5,0.5-3.3v-0.3l0,0c1.4-0.7,2.9-2,3.9-2.9l-0.2,2.9c-1.2,1-3,3.2-3.3,7.9l-0.2,1.1l0.2,1.5
		c-0.1,0.1-0.2,0.1-0.2,0.2c-1.9,4.5-1.9,7.9-1.2,10.6l-0.9,4c-1,4.7-1.9,9.3-4.6,15.8L99.9,112.9z M105.2,117.1l-3.7-3
		c2.7-6.7,3.7-11.3,4.7-16.1l0.5-2.6c0.5,1.5,1.2,2.7,1.7,3.6l0.7,1.3l0.1,0.1C108.4,106,106.9,113.3,105.2,117.1 M110.9,122.9
		l-0.6-0.1c-0.7-0.2-1.4-1.3-2.1-2.4l-1.4-1.8c1.2-3.2,2.6-9.7,3.6-15.3c0.3,1.9,1.4,6.5,2.7,8.5l0.5,0.8l0.8,2.3
		C113.5,117.8,112.2,121.2,110.9,122.9 M116,123.9l-1.1-0.3l-1.6-0.3c0.6-1.6,1.9-5.3,1.9-5.3l1-2.9c0.2,0.3,0.3,0.5,0.3,0.5
		C115,118.4,115.5,121.5,116,123.9 M117.7,124.3c-0.3-1.6-1-5.2-0.2-7.3c0.3,0.5,0.6,1.2,0.8,2.2l0.6,2l0.5,1.8l0.5-0.1l0.9-0.5
		c0,0.1,0,0.1,0,0.2v0.6c0,0.7,0,1.2-0.1,1.7l-1.9-0.4L117.7,124.3z M120.4,132.9c-0.2-0.8-0.3-1.4-0.3-2c0-1.1,0.3-2,0.5-2.7
		c0,0,0-0.1,0.1-0.2l0.2,0.1c0,0.5,0.1,1.1,0.3,1.8c0,0,1.2,5.2,1.8,7.9C122.1,136.6,121.1,135.2,120.4,132.9 M132.4,151.8
		c0,0.1,0,0.2,0,0.3c-0.5-1.1-1-2.1-1.2-2.6c-4.9-7.8-5.2-9.3-7-16.4l-0.1-0.5c-0.6-2.4-0.8-4.6-0.8-6.7c0-4.4,1-7.8,1.8-9.8
		l1.4-3.6c0,0,2.5-5.6,3.1-6.9c1.9,4.4,2.4,7.3,2.4,15.2c0,3.9-0.1,4.7-1.1,9.8l-0.5,2.7c-0.3,1.5-0.4,3-0.4,4.4
		c0,3.8,0.9,7.3,1.6,10.2L132.4,151.8z M143.2,114.7c-0.1-1.6,0-3.1,0-3.1l-0.8-0.1c-0.7,1.8-3.2,6-4.5,7.2l-3.7,3.4
		c0.3-3.4-0.1-6.2-0.5-8.8l-0.4-2.3c-0.3-2.3-1.2-4.8-2.2-7c0.7-0.6,1.3-1.4,1.5-1.9c0,0,0.3-0.7,0.6-1.6c0.2-0.6,0.3-1.4,0.4-2
		c0.8,1.3,2.2,4.2,2.6,5.5l0.1,1.1l0.2,1l0.6,1.1l0.4-0.5l2-3.7l2.9-5.2c0.7,0.4,3.3,2.7,4.4,4.4c0.2,1.1,0.4,2.2,0.9,3.6l0.3,1
		c0.6,1.8,1,3.3,1,4.5c0,0.7-0.4,1.3-0.8,1.9c-0.1-0.3-1-2.9-1-2.9l-0.7,0.1v2.7l-0.2,5.5c-0.3,2.1-1,3.5-1.7,4.4l-0.7-2l-0.5-1.3
		l-0.2-1.3C143.5,118.4,143.2,116.5,143.2,114.7 M156.8,139.2c0,0,0,0.1-0.1,0.2v-1.9l-0.3-1.7c-0.7-2.3-2.2-5.3-2.7-6l-0.2-0.3
		l-0.3,0.2c-0.2,0.2-0.6,0.5-0.6,0.6c0,0-0.1,0.1-0.1,0.2l0,0c-1.4,1.8-3.2,5.7-3.6,8.6c-0.2,1.1-0.4,2.8-0.7,4.5
		c-0.8-3.1-2-6.1-2.8-7.1L145,136l-0.3,0.4c-0.5,0.7-0.9,1.3-1,1.9c-1.2,2.7-1.7,5.7-1.3,8.4c0.4,3-0.4,4.3-1.8,5.6
		c0,0-0.6,0.7-1.3,1.7l1.3-6.3l1.8-5.9c1.6-4.6,3.6-10.2,3.4-14.2c1.4-1.7,2.2-4.5,2.4-5.4l0.3-1.4c0.3-1.6,0.5-3.1,1.5-4.6l0.9-1.7
		c0,0,0,0,0.1-0.2c0.2,0.4,0.6,1.1,1.1,1.9c0.7,1.2,1.6,2.4,1.6,2.4c0.5,0.8,1.6,2.3,2.8,3.9c-1,2.2-1,5.4,0,8.9
		C157.6,135.6,157.8,136.9,156.8,139.2 M165.6,112.1c-2.8-5.1-6.3-14-9.4-22.1l-0.7,0.2l7.8,27.3c-0.3,1.7-0.4,3.3-0.4,4.3l-0.4,4.2
		c-1.7-1.5-4.1-4.4-5.6-6.6c-2-2.9-4.5-7.3-5-9.4l-1-3.5c1.3-1.8,2.9-4.9,2.5-7.9c-0.3-2.4-1.1-3.9-2-5.1l1.1-3.2
		c0.2-1.9,0.6-5.1-0.5-8.2c0.4-1.2,0.6-2.8,0.6-4.3c0-1.4-0.2-2.7-0.7-3.8c0,0-0.3-0.5-0.8-1.1c0.6-1.3,1.1-2.2,1.5-2.3
		c0.2,0,0.5,0.1,0.9,0.5c0.6,0.6,1.1,1.8,1.5,4l0.2,1.1c1.3,10,6.7,23.2,13.7,34.7C167.9,111,166.6,111.3,165.6,112.1 M171.4,126.9
		c0,0-0.7,0.4-1.4,0.7c0-0.8,0.1-2.6,0.2-4.7c0.5,0.6,0.9,1,0.9,1s1.5,1.7,1.9,2.2C172.6,126.4,171.4,126.9,171.4,126.9
		 M165.8,139.6c-1.4,3.3-3.3,5.5-5.1,7.4c1.7-2.7,3.5-5.7,4.9-8.1l2.2-3.7c1.5-2.5,5.3-5.6,7.7-6.6c0.1,0.1,0.2,0.2,0.2,0.3
		C169.6,133.7,167.2,136.4,165.8,139.6 M182.9,131.2c-0.7-0.3-1.6-1.1-2.5-1.8l-2.1-1.6c-1.1-0.7-6.2-5.9-8.2-8.9
		c-0.4-2.4-0.5-4.5-0.3-5.1c0.1-0.4,0.2-0.5,0.3-0.6c4.1,6.4,8.7,12.2,13.3,16.3C183.4,130.1,183.1,130.8,182.9,131.2 M183.9,128.7
		c-4.4-4-8.6-9.2-12.5-15.3l-0.2-0.4l0.3-0.2l-0.6-1.2l-0.4-0.8l-0.6,0.1l-0.3-0.4c-7.3-12-12.6-25.4-13.9-35.5
		c0.4-0.7,1.2-1.4,2.3-2.3c2.7,10.9,6,20.1,10.5,28c3.2,8.6,11.3,21,16,25.3C184.3,127,184.1,127.9,183.9,128.7 M185,124.3
		c-0.1,0.3-0.1,0.6-0.2,0.9c-4-3.9-9.9-12.8-13.5-20.3c3.8,5.7,8.5,11.2,14.4,17.1L185,124.3z M164.2,76.7l0.2,0.6
		c2.5,7.9,13.8,28,24,38.9c-0.8,0.9-1.5,2-2.2,3.5l-0.1,0.3c-14.7-14.9-21.5-27.5-26-49c0.5-0.3,0.9-0.7,1.4-1l1.4-1
		c0.7-0.5,0.9-0.4,0.9-0.4c0.2,0.1,0.1,0.9-0.2,2.4c0,0-0.2,0.2-0.2,0.9c0,0.4,0,0.6,0,0.7v0.7c0,0.9,0.3,1.7,0.3,1.7 M188.8,115.7
		c-10.1-10.9-21.3-30.7-23.7-38.6l-0.2-0.7l-0.5-2.6l1.1-1.4l0.9-1.4c0.5-0.8,0.8-0.8,0.8-0.8c0.3,0,0.8,1.6,0.8,1.6
		c2.2,8.9,7.5,18.5,13.9,27.1c2.5,3.6,6.6,9.1,10.7,14.3C191.1,114,189.9,114.7,188.8,115.7 M191,135.2c0.2-0.7,0.5-1.6,0.5-1.6
		c0.3-0.9,0.5-1.8,0.8-2.7c1,0.9,1.9,2,1.6,2.9C192.7,134.4,191.6,134.9,191,135.2 M197.1,132.3c0,0-1.1,0.5-2.5,1.2
		c0-1.3-1.1-2.4-2.2-3.4c0.2-0.9,0.4-1.8,0.6-2.7c1.2,0.8,3.1,1.8,3.1,1.8l2.9,1.7C198.4,131.4,197.7,131.9,197.1,132.3
		 M193.4,124.2c0-0.2,0.1-0.5,0.1-0.8c0-0.4,0-0.8-0.1-1.2c0-0.1,0-0.2,0-0.2c2.1,1.8,5.3,4.7,7.7,6.4
		C199.1,127.5,195.1,125.3,193.4,124.2 M201.6,127.8c-2.6-1.9-6.4-5.2-8.4-7c-0.1-1.1-0.2-2.2-0.2-3.2c0-1.4,0.1-2.5,0.2-3.5
		c3.9,4.9,7.6,9.3,9.9,11.4C202.6,126.3,202.1,127,201.6,127.8 M204.5,122.3c-0.2,0.7-0.6,1.6-1.1,2.5c-2.9-2.8-8.6-9.7-13.5-16.3
		c4.9,5.2,10,9.7,14.8,12.8C204.7,121.7,204.6,122,204.5,122.3 M205.1,119.2c-16.8-11.3-31.6-36.8-35.7-47.1l1.7-3.8
		c0.2-0.6,0.4-0.7,0.5-0.7c0,0,0.1,0,0.2,0.1c5.3,15.2,20.2,38.8,33.5,49.6C205.2,117.9,205.1,118.5,205.1,119.2 M210.4,115.1
		c-1.3-2.1-3.5-4.7-5.1-6l-0.3-0.3c-1.2-1.6-2.4-3.2-3.5-4.8c3.6,3.5,8.3,7.2,10.1,8.7l0.3,0.3C211.3,113.9,210.7,114.7,210.4,115.1
		 M213.7,110.7c0,0-0.2,0.3-0.5,0.7c-13.7-10.8-27.9-30.2-34-46.4c1-1.3,1.9-2.9,2.2-4.7c0.5,0.4,0.9,0.8,1.4,1.3v0.1
		c3.2,11.6,20.7,38.7,31.4,48.5C214.1,110.3,213.8,110.5,213.7,110.7 M216.6,108.6c-0.6,0.3-1.2,0.6-1.7,1
		c-10.8-9.9-28.6-37.4-31.4-48.7c0-1.5,0.3-5.8,0.7-6.7c0.4-0.2,1.5,1.1,2.1,1.7l1.2,1c0.2,0.5,0.4,0.9,0.6,1.4
		c4.1,15.6,18.2,38.8,28.5,46.8C216.6,106.6,216.6,107.8,216.6,108.6 M218.8,107.8c0-9-4-37.1-6-42.5c0.1-0.3,0.2-0.5,0.2-0.8
		l0.2-0.6l0.2-1.7l0.2-1.7c0.2-0.7,0.2-1.3,0.3-1.9c2.9,8.1,7.8,32.8,8,48.5C220.9,107.3,219.9,107.5,218.8,107.8 M217,124.8
		c0.2-0.6,0.4-1.4,0.4-1.4c0.8-3,2.1-7.6,4.4-11.7c-0.1,4.2-0.3,8.4-0.7,12.5C219.6,124.3,218,124.6,217,124.8 M212.4,161.2
		c-1.7,1.9-3.4,3.5-5.3,4.8c-0.7,0.4-1,0.5-1.1,0.4c0.1,0,0.4-0.6,0.4-0.6c1.5-1.9,10.4-20.3,11.3-33.1l1.3-1.3
		c0.5-0.6,1-1.1,1.5-1.6C219.3,139.8,216.9,149.9,212.4,161.2 M227.6,105c0.1,2,0.2,4.1,0.2,6.1c0,18.7-5.5,37.4-13.9,48.3
		c4.1-11,6.4-20.8,7.6-30.5c1.1-1.1,2.3-2.1,3.7-3.1l0.3-0.2l-0.2-0.3c-0.4-0.9-1.8-1.1-3.4-1.1c0.4-4.6,0.6-9.2,0.7-13.9
		c0.6-1,1.2-1.9,1.9-2.7l0.7-0.6H225l0,0h-0.8c-0.5,0-1,0-1.7,0.1c-0.3-17.1-6.1-45-8.9-50.5c-0.2-1.9-1-3-1.7-4
		c0,0-0.2-0.3-0.3-0.5c0.6,0.5,1.3,1.1,1.7,1.7l0.5,0.9l0,0C218.5,62,225.8,77.8,227.6,105 M239.3,126.8c-0.1,0.1-0.2,0.2-0.3,0.3
		c0,0-0.5,0.6-0.6,0.7c0-0.2,0-0.4,0-0.4l-0.1-1.2c-0.2-4.6-0.9-16.9-6.4-37.9c-1.7-6.5-7.2-18.2-12.1-27.6c1.9,2.7,3.4,5.1,3.8,5.8
		l0.6,1.5c1.2,3.2,3.8,10,7.4,16l1.6,3.9c0,0,0,0,0.1,0.1C239.9,106.9,241,123.4,239.3,126.8 M243.5,109.8c0,0.4,0,0.7,0,1.1
		c0,5.9-1.1,10.9-2.9,14.1c0.9-6-0.8-20-5.9-35.3c1.2,1.3,2.9,2.9,4.7,4.2C241.8,97.2,243.3,103.1,243.5,109.8 M248.7,94.7
		c-1.2,0.6-4,0.6-6.3-1c-0.6-0.4-1.2-0.9-1.7-1.4c-0.1-0.1-0.2-0.3-0.3-0.4c-6.1-5.9-9.5-13.7-12.2-19.9l-3.1-6.5
		c-3.7-6.7-7-11.7-10.5-14.8c0.1-1.4,0.1-3,0-4.5c4.1,3.2,11.5,18.1,13.1,22.4c1.7,4.7,10.6,23.2,21,26
		C248.6,94.6,248.6,94.7,248.7,94.7 M235.3,72.6l5.1,8.3c2.8,4.5,6.4,10.3,7.7,12.7c-9.9-3.3-18.5-21.6-19.8-25.3
		c-1.7-4.6-9.5-20.3-13.7-23c-0.1,0-0.1,0-0.2,0c-0.1-1.1-0.3-2-0.6-2.7l-2.5-3.6l-0.4-0.5l3-0.1c3.5,1,15.6,9.7,17.1,12.8
		c1.2,2.7,8.6,14.7,16.4,20.3c-4.5-0.9-8.3-2.6-16.9-14.7c-2.7-3.8-9-11.3-11.4-13l-0.5,0.5C221.1,48.1,234,70.1,235.3,72.6"/>
	<path class="st0" d="M100.3,184.5c-0.1,0-0.1,0.3-0.1,0.3l-0.1,0.3c-0.1,0.3,0,0.7,0,1.1c0,0.4,0.1,0.9,0.1,1.2
		c0.3,2.6,3.1,7.4,7,9.3c0.7,0.3,2,0.9,2.5,0.6l0.2-0.1v-0.3c0-0.2-0.1-0.6-2.3-1.7c-2.7-1.3-5.8-6-6-8c-0.3-2.4-0.8-2.5-1-2.6"/>
	<path class="st0" d="M183.1,27.8c0.1-0.4-0.1-0.7-0.4-0.9l-0.7-0.3c-1.2-0.5-3.2-1.3-3.3-3.8c-0.1-1,0.1-1.6,0.6-1.8
		c1.1-0.5,3.4,1,4.7,2.1c2.7,2.5,3.7,5.7,2.9,9l0.7,0.3c0-0.1,0-0.1,0.1-0.2l0,0v-0.1c0.6-0.9,1-1.8,1-2.8c0-2.5-1.6-5-2.2-6
		c-2.6-4.5-6.9-5.4-8.2-5.4c-1.7,0-2.8,0.7-3,1.8c-0.1,0.8,0.2,1.1,0.6,1.4l0.6,0.7l0.2,1.2l0.1,1.2c0.7,1.8,3.2,3.3,5.3,3.9
		C182.1,28.1,182.9,28.4,183.1,27.8"/>
</g>
</svg>
